<svg width="343" height="266" viewBox="0 0 343 266" fill="none" xmlns="http://www.w3.org/2000/svg">
<path d="M261.158 173.583C264.299 148.001 275.203 127.264 285.512 127.264C295.821 127.264 301.632 148.001 298.491 173.583C295.35 199.164 284.446 219.901 274.137 219.901C263.828 219.901 258.017 199.164 261.158 173.583Z" stroke="#294ED1" stroke-width="5"/>
<path d="M272.299 157.923C296.466 145.133 319.405 141.947 323.535 150.809C327.665 159.671 311.422 177.223 287.256 190.014C263.09 202.804 240.15 205.99 236.02 197.128C231.89 188.266 248.133 170.714 272.299 157.923Z" stroke="#294ED1" stroke-width="5"/>
<path d="M291.196 157.923C312.222 170.714 324.154 188.266 317.848 197.128C311.541 205.99 289.384 202.804 268.359 190.014C247.333 177.223 235.401 159.671 241.707 150.809C248.014 141.947 270.171 145.133 291.196 157.923Z" stroke="#294ED1" stroke-width="5"/>
<path d="M286.825 173.583C286.354 177.42 282.837 180.53 278.972 180.53C275.106 180.53 272.354 177.42 272.825 173.583C273.296 169.746 276.812 166.635 280.678 166.635C284.544 166.635 287.296 169.746 286.825 173.583Z" stroke="#294ED1" stroke-width="5"/>
<path d="M29.4912 209.583C32.0381 188.839 33.3116 178.468 40.5953 172.024C47.879 165.58 58.3285 165.58 79.2274 165.58C100.126 165.58 110.576 165.58 116.277 172.024C121.978 178.468 120.705 188.839 118.158 209.583C115.611 230.326 114.337 240.697 107.054 247.142C99.77 253.585 89.3204 253.585 68.4216 253.585C47.5227 253.585 37.0732 253.585 31.372 247.142C25.6708 240.697 26.9443 230.326 29.4912 209.583Z" stroke="#E2E824" stroke-width="5"/>
<path d="M72.5761 209.583L70.3012 228.11C69.673 233.226 64.9852 237.374 59.8306 237.374C56.3759 237.374 53.5884 235.511 52.3146 232.742" stroke="#E2E824" stroke-width="5" stroke-linecap="round"/>
<path d="M103.435 214.214C102.161 211.446 99.3735 209.583 95.9188 209.583H93.5854C89.7191 209.583 86.2035 212.693 85.7324 216.53C85.2612 220.367 88.0129 223.478 91.8793 223.478H96.5459C100.412 223.478 103.164 226.589 102.693 230.426C102.222 234.263 98.7056 237.374 94.8398 237.374H92.5064C89.0517 237.374 86.2639 235.511 84.9902 232.742" stroke="#E2E824" stroke-width="5" stroke-linecap="round"/>
<path d="M180.952 43.7428H141.113C131.014 43.7428 125.965 43.7428 122.562 46.9901C119.158 50.2375 118.995 55.2097 118.67 65.1541L117.373 104.83C117.093 113.399 118.602 115.966 126.227 119.128L138.725 124.309C141.765 125.569 143.285 126.199 145.004 126.199C146.724 126.199 148.489 125.569 152.019 124.309L166.531 119.128C175.386 115.966 177.892 113.399 180.943 104.83L195.07 65.1541C198.612 55.2097 200.382 50.2375 198.241 46.9901C196.1 43.7428 191.05 43.7428 180.952 43.7428Z" stroke="#FD9E21" stroke-width="5" stroke-linecap="round" stroke-linejoin="round"/>
<path d="M170.581 66.6474H147.373C143.135 66.6474 142.113 67.5132 141.689 71.6533L140.746 80.8474C140.388 84.339 141.067 85.0357 144.643 85.0357H159.367C163.684 85.0357 164.369 85.9221 163.079 90.1311L160.921 97.1674C160.053 99.9979 159.942 100.107 156.99 101.022L150.86 102.922C149.257 103.419 149.23 103.419 147.82 102.922L141.821 100.808C140.208 100.239 139.764 99.5467 139.785 97.8513" stroke="#FD9E21" stroke-width="5" stroke-linecap="round" stroke-linejoin="round"/>
<path d="M94.1926 11.4905H24.1925C21.6152 11.4905 19.8887 13.5481 20.3362 16.0863L40.6705 82.2463C41.6402 85.4013 44.1603 88.1216 47.333 89.4378L67.4545 97.786C69.0813 98.4611 70.7795 98.81 72.4352 98.81C73.859 98.81 75.2252 98.5521 76.4655 98.0489L98.0497 89.288C101.036 88.0761 102.802 85.2341 102.651 81.8856L99.6696 16.0863C99.222 13.5481 96.77 11.4905 94.1926 11.4905Z" stroke="#4D74FF" stroke-width="5" stroke-linecap="round" stroke-linejoin="round"/>
<path d="M40.2671 29.8725H82.2671L46.247 50.5535H83.5804L85.2988 73.5323L69.7758 78.1281L52.6322 73.5323L50.0781 64.3408" stroke="#4D74FF" stroke-width="5" stroke-linecap="round" stroke-linejoin="round"/>
</svg>
