<?xml version="1.0" encoding="UTF-8"?>
<svg version="1.1" xmlns="http://www.w3.org/2000/svg" width="230" height="182">
<path d="M0 0 C75.9 0 151.8 0 230 0 C230 60.06 230 120.12 230 182 C154.1 182 78.2 182 0 182 C0 121.94 0 61.88 0 0 Z " fill="#FEFEFE" transform="translate(0,0)"/>
<path d="M0 0 C0.83298111 -0.00524185 1.66596222 -0.0104837 2.52418518 -0.0158844 C4.27465711 -0.02226816 6.02517215 -0.02101524 7.77563477 -0.01245117 C10.43128959 -0.00393868 13.08479115 -0.03275588 15.74023438 -0.06445312 C31.60257029 -0.12957205 31.60257029 -0.12957205 39.00390625 4.43359375 C42.87584721 8.30553471 43.15145082 12.50592526 43.171875 17.80078125 C43.10704782 24.804242 42.29585365 31.63116119 41.31640625 38.55859375 C41.16751953 39.75613281 41.01863281 40.95367187 40.86523438 42.1875 C39.79497737 49.85137956 38.34675489 58.32311535 32.46166992 63.89331055 C28.6729857 66.5330586 25.17101751 67.55286013 20.62768555 67.6105957 C19.3056739 67.62984856 19.3056739 67.62984856 17.95695496 67.64949036 C17.00694107 67.65687729 16.05692719 67.66426422 15.078125 67.671875 C14.09777786 67.67994675 13.11743073 67.68801849 12.1073761 67.69633484 C10.03196985 67.71016655 7.95654094 67.72089279 5.88110352 67.72875977 C2.71391517 67.74597143 -0.4522289 67.78986598 -3.61914062 67.83398438 C-5.63671108 67.84411175 -7.65429041 67.85262771 -9.671875 67.859375 C-10.61581619 67.87688309 -11.55975739 67.89439117 -12.53230286 67.91242981 C-18.35234292 67.89331557 -21.53630614 67.25343555 -25.99609375 63.43359375 C-29.19972323 59.48650595 -29.46973339 55.85346201 -29.37109375 50.93359375 C-29.36311768 50.20454834 -29.3551416 49.47550293 -29.34692383 48.72436523 C-29.19449217 42.59686986 -28.52666985 36.56363755 -27.68359375 30.49609375 C-27.56612793 29.6453125 -27.44866211 28.79453125 -27.32763672 27.91796875 C-24.43995162 8.94702089 -24.43995162 8.94702089 -16.99609375 3.43359375 C-11.12406883 0.85376649 -6.37707722 -0.02389217 0 0 Z " fill="#FEFEFC" transform="translate(35.99609375,114.56640625)"/>
<path d="M0 0 C1.66215042 -0.01913956 1.66215042 -0.01913956 3.35787964 -0.03866577 C4.55994049 -0.04089142 5.76200134 -0.04311707 7.00048828 -0.04541016 C8.84648117 -0.05539536 8.84648117 -0.05539536 10.72976685 -0.06558228 C13.33740744 -0.07572391 15.94507407 -0.08039883 18.55273438 -0.08007812 C21.228139 -0.07991538 23.90286048 -0.09382346 26.578125 -0.12109375 C30.42746025 -0.15766362 34.27599687 -0.16754799 38.12548828 -0.17041016 C39.92250687 -0.19196671 39.92250687 -0.19196671 41.75582886 -0.21395874 C43.42743576 -0.20472885 43.42743576 -0.20472885 45.1328125 -0.1953125 C46.60269119 -0.19958755 46.60269119 -0.19958755 48.1022644 -0.20394897 C51.45478697 0.43523351 52.63027547 1.61892984 54.69580078 4.29052734 C55.18420328 6.97487125 55.43695293 9.29582563 55.52392578 11.99365234 C55.56265808 12.74910339 55.60139038 13.50455444 55.64129639 14.28289795 C55.7604654 16.70164978 55.85306235 19.12063385 55.94580078 21.54052734 C56.02228111 23.12133694 56.1003914 24.70206856 56.18017578 26.28271484 C56.36939033 30.18513872 56.50701457 34.08712052 56.62036133 37.99243164 C56.69550613 40.28155144 56.80517216 42.56737218 56.91650391 44.85498047 C56.9644026 46.28656604 57.0107018 47.71820629 57.05517578 49.14990234 C57.10641602 50.40770508 57.15765625 51.66550781 57.21044922 52.96142578 C56.54691599 57.253617 55.03289094 58.60870495 51.69580078 61.29052734 C49.23145078 62.56271699 46.94989718 63.61946816 44.38330078 64.60302734 C43.75746094 64.86664063 43.13162109 65.13025391 42.48681641 65.40185547 C34.2365204 68.65966466 27.85497522 67.49568388 19.94580078 64.10302734 C19.20458984 63.81105469 18.46337891 63.51908203 17.69970703 63.21826172 C16.62269531 62.76870117 16.62269531 62.76870117 15.52392578 62.31005859 C14.88358398 62.04298096 14.24324219 61.77590332 13.58349609 61.50073242 C7.44734824 57.56683629 6.03032804 51.05886904 4.02392578 44.47802734 C3.6966449 43.43155029 3.36936401 42.38507324 3.03216553 41.30688477 C2.34456992 39.09963333 1.66241156 36.89068169 0.98535156 34.68017578 C-0.05177266 31.29843959 -1.10822794 27.92320196 -2.16748047 24.54833984 C-2.83400016 22.40026042 -3.49940287 20.25183402 -4.16357422 18.10302734 C-4.47913269 17.09457764 -4.79469116 16.08612793 -5.11981201 15.04711914 C-5.40721252 14.10263916 -5.69461304 13.15815918 -5.99072266 12.18505859 C-6.24513123 11.35852783 -6.49953979 10.53199707 -6.76165771 9.68041992 C-7.34782491 7.09835641 -7.53977546 4.92859243 -7.30419922 2.29052734 C-4.70591803 -0.30775385 -3.6183254 0.02819571 0 0 Z " fill="#FAFBFF" transform="translate(9.30419921875,1.70947265625)"/>
<path d="M0 0 C0.92130707 -0.01283524 1.84261414 -0.02567047 2.7918396 -0.03889465 C3.78043976 -0.04628159 4.76903992 -0.05366852 5.78759766 -0.0612793 C6.81092194 -0.06935104 7.83424622 -0.07742279 8.88858032 -0.08573914 C11.05216793 -0.09955795 13.21577713 -0.11028993 15.37939453 -0.11816406 C18.68254891 -0.13539833 21.98470769 -0.17930745 25.28759766 -0.22338867 C27.39175698 -0.23351436 29.49592479 -0.24203085 31.60009766 -0.2487793 C32.58464935 -0.26628738 33.56920105 -0.28379547 34.58358765 -0.30183411 C40.48933211 -0.28320814 43.77830137 0.32410066 48.32666016 4.17700195 C47.81193384 10.45929267 46.7038252 15.82131647 44.52587891 21.7199707 C44.24823196 22.49206375 43.97058502 23.2641568 43.68452454 24.05964661 C43.10009417 25.67725923 42.51077418 27.29311306 41.91674805 28.90722656 C41.01428627 31.36415861 40.13139711 33.82750589 39.25048828 36.29223633 C38.67676965 37.8727328 38.10193756 39.45282562 37.52587891 41.0324707 C37.26530197 41.76072556 37.00472504 42.48898041 36.73625183 43.23930359 C34.10793308 50.31576843 31.06627966 55.36837176 24.32666016 59.17700195 C15.53915499 63.05084414 8.1082652 66.21102816 -1.12646484 62.9621582 C-12.65243677 58.40922069 -12.65243677 58.40922069 -15.67333984 54.17700195 C-16.09912109 51.0168457 -16.09912109 51.0168457 -15.98583984 47.11450195 C-15.9689209 46.40003906 -15.95200195 45.68557617 -15.93457031 44.94946289 C-15.89144277 43.31197463 -15.83794232 41.67474017 -15.77636719 40.0378418 C-15.65861874 36.76822957 -15.58228452 33.49860429 -15.50537109 30.2277832 C-15.43814517 27.7941395 -15.3691344 25.36054446 -15.29833984 22.92700195 C-15.25253784 21.15957642 -15.25253784 21.15957642 -15.20581055 19.35644531 C-15.14719849 17.68207397 -15.14719849 17.68207397 -15.08740234 15.97387695 C-15.05598145 14.97710937 -15.02456055 13.9803418 -14.9921875 12.95336914 C-14.4010206 7.80578105 -12.67622145 4.47349269 -8.67333984 1.17700195 C-5.75566172 0.22863684 -3.05595563 0.03723338 0 0 Z " fill="#FEFDFA" transform="translate(88.67333984375,24.822998046875)"/>
<path d="M0 0 C3.78992 2.8827132 6.17793836 6.19360829 6.875 10.9375 C6.91625 11.948125 6.9575 12.95875 7 14 C7.99 13.67 8.98 13.34 10 13 C15.76894437 12.4285998 19.96898206 12.85561378 25 16 C26 17 26 17 26.4375 20.5 C26.42005484 25.3410327 24.23947213 28.24042138 21.41015625 32.01953125 C19.82243793 34.04492391 19.82243793 34.04492391 19 37 C19.639375 38.051875 20.27875 39.10375 20.9375 40.1875 C23.48157825 44.39501403 23.70876753 47.11737925 23 52 C20.82425584 54.69105198 19.08934144 56.45532928 16 58 C13.44842345 58.0716735 10.92527029 58.09308442 8.375 58.0625 C7.66859375 58.05798828 6.9621875 58.05347656 6.234375 58.04882812 C4.48954725 58.03703875 2.744763 58.01910324 1 58 C0.72027344 58.93328125 0.44054687 59.8665625 0.15234375 60.828125 C-1.61344079 65.68852177 -4.77494427 68.18329618 -9 71 C-12.375 71.5 -12.375 71.5 -16 71 C-20.30799035 67.07494213 -21.76376324 63.61925802 -23 58 C-23.96421875 58.02320313 -24.9284375 58.04640625 -25.921875 58.0703125 C-27.18515625 58.08835938 -28.4484375 58.10640625 -29.75 58.125 C-31.00296875 58.14820313 -32.2559375 58.17140625 -33.546875 58.1953125 C-36.73960816 58.01472805 -38.41031936 57.79769093 -41 56 C-42.58543507 52.82912985 -42.34065437 50.52009516 -42 47 C-40.17733556 43.22545238 -37.96233221 39.96233221 -35 37 C-35.28784582 34.31343904 -36.2427279 32.56308978 -37.5625 30.1875 C-39.26227494 26.41843383 -39.52105781 24.09402568 -39 20 C-36.82474192 16.50404952 -34.85430672 14.42702706 -31 13 C-28.87170815 13.08524166 -26.74556947 13.23730638 -24.625 13.4375 C-19.82583429 13.64516724 -19.82583429 13.64516724 -15.9921875 11.14453125 C-14.53922344 8.81294232 -13.26977625 6.43478548 -12 4 C-8.20777556 0.01330251 -5.48179943 -1.05789112 0 0 Z " fill="#3C5DD5" transform="translate(202,87)"/>
<path d="M0 0 C0.83298111 -0.00524185 1.66596222 -0.0104837 2.52418518 -0.0158844 C4.27465711 -0.02226816 6.02517215 -0.02101524 7.77563477 -0.01245117 C10.43128959 -0.00393868 13.08479115 -0.03275588 15.74023438 -0.06445312 C31.60257029 -0.12957205 31.60257029 -0.12957205 39.00390625 4.43359375 C42.87584721 8.30553471 43.15145082 12.50592526 43.171875 17.80078125 C43.10704782 24.804242 42.29585365 31.63116119 41.31640625 38.55859375 C41.16751953 39.75613281 41.01863281 40.95367187 40.86523438 42.1875 C39.79497737 49.85137956 38.34675489 58.32311535 32.46166992 63.89331055 C28.6729857 66.5330586 25.17101751 67.55286013 20.62768555 67.6105957 C19.3056739 67.62984856 19.3056739 67.62984856 17.95695496 67.64949036 C17.00694107 67.65687729 16.05692719 67.66426422 15.078125 67.671875 C14.09777786 67.67994675 13.11743073 67.68801849 12.1073761 67.69633484 C10.03196985 67.71016655 7.95654094 67.72089279 5.88110352 67.72875977 C2.71391517 67.74597143 -0.4522289 67.78986598 -3.61914062 67.83398438 C-5.63671108 67.84411175 -7.65429041 67.85262771 -9.671875 67.859375 C-10.61581619 67.87688309 -11.55975739 67.89439117 -12.53230286 67.91242981 C-18.35234292 67.89331557 -21.53630614 67.25343555 -25.99609375 63.43359375 C-29.19972323 59.48650595 -29.46973339 55.85346201 -29.37109375 50.93359375 C-29.36311768 50.20454834 -29.3551416 49.47550293 -29.34692383 48.72436523 C-29.19449217 42.59686986 -28.52666985 36.56363755 -27.68359375 30.49609375 C-27.56612793 29.6453125 -27.44866211 28.79453125 -27.32763672 27.91796875 C-24.43995162 8.94702089 -24.43995162 8.94702089 -16.99609375 3.43359375 C-11.12406883 0.85376649 -6.37707722 -0.02389217 0 0 Z M-18.24609375 9.80859375 C-22.19776016 15.73609336 -22.78256661 21.82046079 -23.62109375 28.74609375 C-23.75080566 29.8131958 -23.88051758 30.88029785 -24.01416016 31.97973633 C-26.17945256 46.32909663 -26.17945256 46.32909663 -23.78515625 60.234375 C-21.57930173 62.94593852 -20.34616942 63.42954209 -16.99609375 64.43359375 C-14.0100117 64.73816979 -11.03899723 64.76142882 -8.0390625 64.76953125 C-7.17726883 64.77618805 -6.31547516 64.78284485 -5.42756653 64.78970337 C-3.60790126 64.79980548 -1.78819914 64.80452115 0.03149414 64.80419922 C2.79701741 64.80856315 5.5609316 64.84488189 8.32617188 64.8828125 C10.100255 64.88868327 11.87434565 64.89265092 13.6484375 64.89453125 C14.46641312 64.90890228 15.28438873 64.92327332 16.12715149 64.93807983 C21.8413117 64.89323699 26.23936532 63.6699779 31.00390625 60.43359375 C40.21568102 48.8952311 40.13139906 25.70964241 39.00390625 11.43359375 C38.11988169 8.30177503 37.27720141 7.60660421 34.50292969 5.8503418 C30.07053735 4.05567443 26.39235267 4.00122946 21.66015625 4.03515625 C20.77283813 4.03228607 19.88552002 4.02941589 18.97131348 4.02645874 C17.10212564 4.02442442 15.23291621 4.0299099 13.36376953 4.04248047 C10.51285925 4.05854331 7.66336652 4.04261043 4.8125 4.0234375 C2.99088231 4.02542004 1.16926549 4.02926395 -0.65234375 4.03515625 C-1.49937866 4.02908356 -2.34641357 4.02301086 -3.21911621 4.01675415 C-9.42204572 4.0899821 -13.81851649 5.13503998 -18.24609375 9.80859375 Z " fill="#E4E935" transform="translate(35.99609375,114.56640625)"/>
<path d="M0 0 C1.66215042 -0.01913956 1.66215042 -0.01913956 3.35787964 -0.03866577 C4.55994049 -0.04089142 5.76200134 -0.04311707 7.00048828 -0.04541016 C8.84648117 -0.05539536 8.84648117 -0.05539536 10.72976685 -0.06558228 C13.33740744 -0.07572391 15.94507407 -0.08039883 18.55273438 -0.08007812 C21.228139 -0.07991538 23.90286048 -0.09382346 26.578125 -0.12109375 C30.42746025 -0.15766362 34.27599687 -0.16754799 38.12548828 -0.17041016 C39.92250687 -0.19196671 39.92250687 -0.19196671 41.75582886 -0.21395874 C43.42743576 -0.20472885 43.42743576 -0.20472885 45.1328125 -0.1953125 C46.60269119 -0.19958755 46.60269119 -0.19958755 48.1022644 -0.20394897 C51.45478697 0.43523351 52.63027547 1.61892984 54.69580078 4.29052734 C55.18420328 6.97487125 55.43695293 9.29582563 55.52392578 11.99365234 C55.56265808 12.74910339 55.60139038 13.50455444 55.64129639 14.28289795 C55.7604654 16.70164978 55.85306235 19.12063385 55.94580078 21.54052734 C56.02228111 23.12133694 56.1003914 24.70206856 56.18017578 26.28271484 C56.36939033 30.18513872 56.50701457 34.08712052 56.62036133 37.99243164 C56.69550613 40.28155144 56.80517216 42.56737218 56.91650391 44.85498047 C56.9644026 46.28656604 57.0107018 47.71820629 57.05517578 49.14990234 C57.10641602 50.40770508 57.15765625 51.66550781 57.21044922 52.96142578 C56.54691599 57.253617 55.03289094 58.60870495 51.69580078 61.29052734 C49.23145078 62.56271699 46.94989718 63.61946816 44.38330078 64.60302734 C43.75746094 64.86664063 43.13162109 65.13025391 42.48681641 65.40185547 C34.2365204 68.65966466 27.85497522 67.49568388 19.94580078 64.10302734 C19.20458984 63.81105469 18.46337891 63.51908203 17.69970703 63.21826172 C16.62269531 62.76870117 16.62269531 62.76870117 15.52392578 62.31005859 C14.88358398 62.04298096 14.24324219 61.77590332 13.58349609 61.50073242 C7.44734824 57.56683629 6.03032804 51.05886904 4.02392578 44.47802734 C3.6966449 43.43155029 3.36936401 42.38507324 3.03216553 41.30688477 C2.34456992 39.09963333 1.66241156 36.89068169 0.98535156 34.68017578 C-0.05177266 31.29843959 -1.10822794 27.92320196 -2.16748047 24.54833984 C-2.83400016 22.40026042 -3.49940287 20.25183402 -4.16357422 18.10302734 C-4.47913269 17.09457764 -4.79469116 16.08612793 -5.11981201 15.04711914 C-5.40721252 14.10263916 -5.69461304 13.15815918 -5.99072266 12.18505859 C-6.24513123 11.35852783 -6.49953979 10.53199707 -6.76165771 9.68041992 C-7.34782491 7.09835641 -7.53977546 4.92859243 -7.30419922 2.29052734 C-4.70591803 -0.30775385 -3.6183254 0.02819571 0 0 Z M-3.30419922 3.29052734 C-2.69595145 9.56001854 -1.33068783 15.30684346 0.46142578 21.33740234 C0.73670105 22.271026 1.01197632 23.20464966 1.29559326 24.16656494 C1.87710266 26.12740004 2.4622255 28.08716681 3.05078125 30.04589844 C3.94582465 33.04060719 4.81511862 36.04206932 5.68408203 39.04443359 C6.25412694 40.95505887 6.82568963 42.8652321 7.39892578 44.77490234 C7.78204926 46.11714874 7.78204926 46.11714874 8.1729126 47.48651123 C9.7245802 52.53311438 10.98740632 55.43983861 15.69580078 58.29052734 C17.94714461 59.47474484 20.24321134 60.57674885 22.57080078 61.60302734 C23.74384766 62.13541016 24.91689453 62.66779297 26.12548828 63.21630859 C32.81674924 65.22954357 38.38700927 62.90109163 44.57080078 60.35302734 C45.24626953 60.088125 45.92173828 59.82322266 46.61767578 59.55029297 C50.34327048 58.24032186 50.34327048 58.24032186 52.69580078 55.29052734 C52.72467487 52.59567444 52.69232974 49.93168705 52.60986328 47.23974609 C52.5780043 46.02506401 52.5780043 46.02506401 52.54550171 44.7858429 C52.49915606 43.06329522 52.4502213 41.34081559 52.39892578 39.6184082 C52.32224458 37.02682323 52.25440191 34.43512777 52.18798828 31.84326172 C53.04764187 16.62492118 53.04764187 16.62492118 49.69580078 3.29052734 C48.03841635 3.19705819 46.37705434 3.17307757 44.71704102 3.17700195 C43.12550453 3.17711525 43.12550453 3.17711525 41.5018158 3.17723083 C40.34766678 3.18239212 39.19351776 3.18755341 38.00439453 3.19287109 C36.24193138 3.19499352 36.24193138 3.19499352 34.44386292 3.19715881 C30.67365014 3.20277742 26.90349575 3.21533308 23.13330078 3.22802734 C20.58447351 3.23303995 18.03564531 3.23760327 15.48681641 3.24169922 C9.22312445 3.2527529 2.95946679 3.26950913 -3.30419922 3.29052734 Z " fill="#587CFF" transform="translate(9.30419921875,1.70947265625)"/>
<path d="M0 0 C0.92130707 -0.01283524 1.84261414 -0.02567047 2.7918396 -0.03889465 C3.78043976 -0.04628159 4.76903992 -0.05366852 5.78759766 -0.0612793 C6.81092194 -0.06935104 7.83424622 -0.07742279 8.88858032 -0.08573914 C11.05216793 -0.09955795 13.21577713 -0.11028993 15.37939453 -0.11816406 C18.68254891 -0.13539833 21.98470769 -0.17930745 25.28759766 -0.22338867 C27.39175698 -0.23351436 29.49592479 -0.24203085 31.60009766 -0.2487793 C32.58464935 -0.26628738 33.56920105 -0.28379547 34.58358765 -0.30183411 C40.48933211 -0.28320814 43.77830137 0.32410066 48.32666016 4.17700195 C47.81193384 10.45929267 46.7038252 15.82131647 44.52587891 21.7199707 C44.24823196 22.49206375 43.97058502 23.2641568 43.68452454 24.05964661 C43.10009417 25.67725923 42.51077418 27.29311306 41.91674805 28.90722656 C41.01428627 31.36415861 40.13139711 33.82750589 39.25048828 36.29223633 C38.67676965 37.8727328 38.10193756 39.45282562 37.52587891 41.0324707 C37.26530197 41.76072556 37.00472504 42.48898041 36.73625183 43.23930359 C34.10793308 50.31576843 31.06627966 55.36837176 24.32666016 59.17700195 C15.53915499 63.05084414 8.1082652 66.21102816 -1.12646484 62.9621582 C-12.65243677 58.40922069 -12.65243677 58.40922069 -15.67333984 54.17700195 C-16.09912109 51.0168457 -16.09912109 51.0168457 -15.98583984 47.11450195 C-15.9689209 46.40003906 -15.95200195 45.68557617 -15.93457031 44.94946289 C-15.89144277 43.31197463 -15.83794232 41.67474017 -15.77636719 40.0378418 C-15.65861874 36.76822957 -15.58228452 33.49860429 -15.50537109 30.2277832 C-15.43814517 27.7941395 -15.3691344 25.36054446 -15.29833984 22.92700195 C-15.25253784 21.15957642 -15.25253784 21.15957642 -15.20581055 19.35644531 C-15.14719849 17.68207397 -15.14719849 17.68207397 -15.08740234 15.97387695 C-15.05598145 14.97710937 -15.02456055 13.9803418 -14.9921875 12.95336914 C-14.4010206 7.80578105 -12.67622145 4.47349269 -8.67333984 1.17700195 C-5.75566172 0.22863684 -3.05595563 0.03723338 0 0 Z M-9.31762695 5.97851562 C-13.66094191 13.02183477 -11.92761449 24.46915061 -11.96850586 32.58984375 C-11.98012715 34.19865645 -12.00073516 35.80742767 -12.0300293 37.41601562 C-12.07257411 39.75978338 -12.08884221 42.10242815 -12.09912109 44.4465332 C-12.11662918 45.16323685 -12.13413727 45.87994049 -12.1521759 46.61836243 C-12.13732008 50.02755699 -11.93806839 51.83590941 -9.81982422 54.56518555 C-7.27295401 56.47765565 -4.79312986 57.74356101 -1.86083984 58.98950195 C-0.86439453 59.42907227 0.13205078 59.86864258 1.15869141 60.3215332 C7.63085215 62.06925602 13.52944338 59.63784931 19.57666016 57.36450195 C20.63626953 56.99228516 20.63626953 56.99228516 21.71728516 56.61254883 C25.85656228 55.07207922 28.04282526 53.92556377 30.32666016 50.17700195 C31.5770399 47.30776765 32.63276176 44.3786992 33.68212891 41.4309082 C33.98862869 40.58278061 34.29512848 39.73465302 34.61091614 38.86082458 C35.25552884 37.07088765 35.8966233 35.27968028 36.53442383 33.48730469 C37.51080481 30.74891248 38.50291307 28.01658316 39.49658203 25.28442383 C40.12188898 23.54192877 40.74626927 21.79910084 41.36962891 20.0559082 C41.66645065 19.24118546 41.9632724 18.42646271 42.26908875 17.58705139 C44.28426582 12.02633076 44.28426582 12.02633076 44.32666016 6.17700195 C41.84471732 3.69505912 41.08756877 3.91702823 37.66503906 3.88647461 C36.69708405 3.8737149 35.72912903 3.8609552 34.73184204 3.84780884 C33.15842545 3.84447037 33.15842545 3.84447037 31.55322266 3.84106445 C30.47793304 3.83440765 29.40264343 3.82775085 28.29476929 3.82089233 C26.01668004 3.81075281 23.73856101 3.80607571 21.46044922 3.80639648 C17.97264641 3.80202824 14.48611347 3.76573452 10.99853516 3.7277832 C8.78760199 3.72191441 6.57666281 3.71794544 4.36572266 3.71606445 C2.79837875 3.6945079 2.79837875 3.6945079 1.19937134 3.67251587 C-4.39924965 3.62578748 -4.39924965 3.62578748 -9.31762695 5.97851562 Z " fill="#FDA430" transform="translate(88.67333984375,24.822998046875)"/>
<path d="M0 0 C10.89 0 21.78 0 33 0 C33.495 1.98 33.495 1.98 34 4 C28.06 7.3 22.12 10.6 16 14 C21.94 14.33 27.88 14.66 34 15 C35.60560835 20.61962921 36.23152156 23.84511808 36.125 29.4375 C36.10695312 30.67371094 36.08890625 31.90992188 36.0703125 33.18359375 C36.04710937 34.11300781 36.02390625 35.04242188 36 36 C28.93673641 38.65999501 23.42213449 39.39242724 16 38 C15.30261719 37.896875 14.60523438 37.79375 13.88671875 37.6875 C12 37.3125 12 37.3125 9 36 C7.19423712 32.38847423 7 30.05704517 7 26 C8.32 26.33 9.64 26.66 11 27 C11.33 28.98 11.66 30.96 12 33 C19.04305086 34.40861017 24.92634634 34.17894228 32 33 C32 28.38 32 23.76 32 19 C22.76 19 13.52 19 4 19 C5 15 5 15 6.67407227 13.62792969 C7.38104248 13.22993164 8.0880127 12.83193359 8.81640625 12.421875 C9.50420166 12.02581055 10.19199707 11.62974609 10.90063477 11.22167969 C12.21825806 10.49319824 12.21825806 10.49319824 13.5625 9.75 C17.7390625 7.39875 17.7390625 7.39875 22 5 C14.74 4.67 7.48 4.34 0 4 C0 2.68 0 1.36 0 0 Z " fill="#5B7FFF" transform="translate(17,15)"/>
<path d="M0 0 C3.02336438 3.09710497 2.95540393 3.94411831 3 8.125 C2.91671862 9.96223779 2.77473551 11.79816269 2.5625 13.625 C2.49675781 14.33011719 2.43101562 15.03523438 2.36328125 15.76171875 C1.11531767 18.66551693 -0.95497351 19.46529656 -3.6875 20.9375 C-4.64140625 21.46988281 -5.5953125 22.00226563 -6.578125 22.55078125 C-10.50378305 24.02558448 -12.69121348 23.351212 -16.45703125 21.78515625 C-18.48772793 20.54196286 -19.93577172 19.485287 -21.4375 17.625 C-22.38708996 13.24393723 -21.68040849 9.18655456 -21 4.8125 C-15.55019174 -2.81723157 -8.12170697 -3.24868279 0 0 Z " fill="#F4F6FC" transform="translate(203.4375,112.375)"/>
<path d="M0 0 C1.40668945 0.01450195 1.40668945 0.01450195 2.84179688 0.02929688 C3.81826172 0.05443359 4.79472656 0.07957031 5.80078125 0.10546875 C6.78884766 0.11900391 7.77691406 0.13253906 8.79492188 0.14648438 C11.23492356 0.18184672 13.67382844 0.23119842 16.11328125 0.29296875 C16.11328125 1.61296875 16.11328125 2.93296875 16.11328125 4.29296875 C9.51328125 4.29296875 2.91328125 4.29296875 -3.88671875 4.29296875 C-4.21671875 7.59296875 -4.54671875 10.89296875 -4.88671875 14.29296875 C0.39328125 14.29296875 5.67328125 14.29296875 11.11328125 14.29296875 C12.31390007 20.29606284 11.4561876 23.27379236 8.11328125 28.29296875 C4.78550583 30.57673619 2.70649168 31.47562982 -1.33984375 31.01171875 C-3.56494411 30.53591112 -5.71738604 29.97672668 -7.88671875 29.29296875 C-8.21671875 27.64296875 -8.54671875 25.99296875 -8.88671875 24.29296875 C-7.89671875 23.96296875 -6.90671875 23.63296875 -5.88671875 23.29296875 C-5.55671875 23.95296875 -5.22671875 24.61296875 -4.88671875 25.29296875 C-0.89805748 26.29013407 2.14558815 26.34324045 6.11328125 25.29296875 C6.77328125 22.65296875 7.43328125 20.01296875 8.11328125 17.29296875 C6.96988281 17.30457031 5.82648438 17.31617187 4.6484375 17.328125 C3.15755371 17.33750163 1.66666816 17.34660196 0.17578125 17.35546875 C-0.57896484 17.36384766 -1.33371094 17.37222656 -2.11132812 17.38085938 C-4.03666188 17.38949316 -5.96207456 17.34521208 -7.88671875 17.29296875 C-8.21671875 16.96296875 -8.54671875 16.63296875 -8.88671875 16.29296875 C-8.87500194 14.16636767 -8.77724757 12.03995393 -8.63671875 9.91796875 C-8.5696875 8.75523438 -8.50265625 7.5925 -8.43359375 6.39453125 C-7.49201801 1.05445167 -5.2303788 -0.0950978 0 0 Z " fill="#FDA531" transform="translate(98.88671875,41.70703125)"/>
<path d="M0 0 C2.4375 1.25 2.4375 1.25 4 3 C4 4.32 4 5.64 4 7 C0.125 6.125 0.125 6.125 -1 5 C-2.99958364 4.95919217 -5.00045254 4.95745644 -7 5 C-7.33 6.65 -7.66 8.3 -8 10 C-6.7625 9.9175 -5.525 9.835 -4.25 9.75 C-1.17880225 9.76636517 -0.14345281 9.91252877 2.5625 11.5625 C4 14 4 14 4 17.5625 C3 21 3 21 1.4375 22.9375 C-2.06822628 24.4656371 -5.2393136 24.73210084 -9 24 C-11.5 22 -11.5 22 -13 20 C-12.505 18.515 -12.505 18.515 -12 17 C-11.484375 17.33 -10.96875 17.66 -10.4375 18 C-7.21973488 19.32010877 -4.4429472 19.13242105 -1 19 C-1 17.68 -1 16.36 -1 15 C-2.8871875 14.8453125 -2.8871875 14.8453125 -4.8125 14.6875 C-7.31797458 14.35934935 -8.81117604 14.11211423 -11 12.8125 C-12.56241239 9.98062754 -12.50877767 8.17986045 -12 5 C-8.52074434 0.15012847 -5.8769667 -0.85483152 0 0 Z " fill="#E4E936" transform="translate(62,147)"/>
<path d="M0 0 C1.74965358 -0.05429959 3.49979787 -0.09292823 5.25 -0.125 C6.22453125 -0.14820312 7.1990625 -0.17140625 8.203125 -0.1953125 C11.0196498 0.00137219 12.60949036 0.55431084 15 2 C14.73672346 8.45027515 12.49335977 11.47915791 8 16 C4.60153677 14.34360616 2.21420024 13.1631432 0 10 C-0.3380398 6.64072946 -0.23112958 3.36421941 0 0 Z " fill="#F2F4FC" transform="translate(210,104)"/>
<path d="M0 0 C2.9375 0.6875 2.9375 0.6875 5.3125 3.375 C6.88515158 6.58078975 7.34747349 8.20272533 6.9375 11.6875 C1.75566111 14.33129535 -1.2073573 15.15128568 -7.0625 13.6875 C-8.0525 13.0275 -9.0425 12.3675 -10.0625 11.6875 C-8.55348804 5.78863508 -6.26679221 1.40683091 0 0 Z " fill="#F8F9FD" transform="translate(198.0625,90.3125)"/>
<path d="M0 0 C0.98484375 0.02707031 1.9696875 0.05414063 2.984375 0.08203125 C3.73203125 0.11683594 4.4796875 0.15164062 5.25 0.1875 C4.62683144 6.54381933 3.396793 10.14804665 -1.25 14.5625 C-2.075 15.09875 -2.9 15.635 -3.75 16.1875 C-6.75 15.1875 -6.75 15.1875 -8.4375 12.5 C-9.81947263 9.01216432 -10.32580262 6.88908826 -9.75 3.1875 C-6.6352653 0.08005976 -4.30144595 -0.15362307 0 0 Z " fill="#F9FAFD" transform="translate(176.75,103.8125)"/>
<path d="M0 0 C2.32758311 0.93103324 3.74357132 1.65382128 5.25 3.6875 C6.29954073 6.92358391 6.31244618 9.62558131 6 13 C2.47320901 15.35119399 0.97120515 15.21443452 -3.1875 15.125 C-4.27417969 15.10695312 -5.36085937 15.08890625 -6.48046875 15.0703125 C-7.72763672 15.03550781 -7.72763672 15.03550781 -9 15 C-8.51005025 7.65075377 -8.51005025 7.65075377 -6.1875 4.6875 C-5.465625 4.130625 -4.74375 3.57375 -4 3 C-3.2575 2.4225 -2.515 1.845 -1.75 1.25 C-1.1725 0.8375 -0.595 0.425 0 0 Z " fill="#FAFBFE" transform="translate(215,126)"/>
<path d="M0 0 C2.96016001 1.37436001 5.63781308 2.7266564 8 5 C8.390625 7.48046875 8.390625 7.48046875 8.25 10.1875 C8.21390625 11.08855469 8.1778125 11.98960937 8.140625 12.91796875 C8.07101563 13.94857422 8.07101563 13.94857422 8 15 C5.85423363 15.02685938 3.70837355 15.04633088 1.5625 15.0625 C0.36753906 15.07410156 -0.82742187 15.08570313 -2.05859375 15.09765625 C-5 15 -5 15 -6 14 C-6.49228387 10.48368664 -6.67097511 8.01135316 -4.66015625 4.98046875 C-3.16315728 3.25099464 -1.63404169 1.59999916 0 0 Z " fill="#FBFBFE" transform="translate(170,126)"/>
<path d="M0 0 C-1.26371914 5.30762038 -3.51660073 8.91143606 -8 12 C-10.625 12.375 -10.625 12.375 -13 11 C-15.397806 7.46967976 -17 4.29882974 -17 0 C-10.28465759 -3.29662264 -6.7776789 -3.05936895 0 0 Z " fill="#F6F8FD" transform="translate(200,143)"/>
<path d="M0 0 C1.9375 1.125 1.9375 1.125 3 3 C3.53520313 6.59350675 3.44814771 8.31881548 1.4375 11.375 C-1.8994213 13.5996142 -4.06905293 13.50030235 -8 13 C-9.9375 11.875 -9.9375 11.875 -11 10 C-11.53520313 6.40649325 -11.44814771 4.68118452 -9.4375 1.625 C-6.1005787 -0.5996142 -3.93094707 -0.50030235 0 0 Z " fill="#3557D3" transform="translate(198,116)"/>
<path d="M0 0 C0.99 0.33 1.98 0.66 3 1 C2.77104328 3.73241767 2.51773464 6.45883775 2.25 9.1875 C2.1571875 10.34088867 2.1571875 10.34088867 2.0625 11.51757812 C1.55225461 16.47121042 0.68702901 19.37629783 -3 23 C-6.09173752 24.54586876 -8.59429552 24.29359521 -12 24 C-14.4375 22 -14.4375 22 -16 20 C-15.505 18.515 -15.505 18.515 -15 17 C-14.46375 17.33 -13.9275 17.66 -13.375 18 C-10.38358852 19.25954167 -8.21567216 19.34952958 -5 19 C-2.65180596 15.47770895 -2.37965677 12.46591135 -1.9375 8.375 C-1.12185864 1.12185864 -1.12185864 1.12185864 0 0 Z " fill="#E4E935" transform="translate(41,147)"/>
<path d="M0 0 C19.47 0 38.94 0 59 0 C59 0.66 59 1.32 59 2 C58.31761765 2.00364563 57.63523529 2.00729126 56.93217468 2.01104736 C49.84318732 2.05279002 42.75485239 2.12207766 35.66625977 2.20751953 C33.01919066 2.23578179 30.37203634 2.25696999 27.72485352 2.27099609 C23.92419638 2.2923521 20.12456963 2.33896727 16.32421875 2.390625 C15.13664474 2.39185364 13.94907074 2.39308228 12.72550964 2.39434814 C11.62459488 2.41406677 10.52368011 2.4337854 9.3894043 2.45410156 C7.93379341 2.46742523 7.93379341 2.46742523 6.44877625 2.48101807 C3.83274057 2.78507223 3.83274057 2.78507223 2.16316223 5.03411865 C1.7793187 5.6828595 1.39547516 6.33160034 1 7 C0.67 4.69 0.34 2.38 0 0 Z " fill="#EAEFFF" transform="translate(0,0)"/>
<path d="M0 0 C2.125 0.375 2.125 0.375 4 1 C4 2.65 4 4.3 4 6 C2.35 6.33 0.7 6.66 -1 7 C-1.625 4.625 -1.625 4.625 -2 2 C-1.34 1.34 -0.68 0.68 0 0 Z " fill="#ECEFFA" transform="translate(193,119)"/>
<path d="M0 0 C1.32 1.32 2.64 2.64 4 4 C2.625 5.5 2.625 5.5 1 7 C0.34 7 -0.32 7 -1 7 C-0.67 4.69 -0.34 2.38 0 0 Z " fill="#E7EBF9" transform="translate(210,119)"/>
<path d="M0 0 C1.65 0.33 3.3 0.66 5 1 C2.94766315 3.2477975 1.99332739 4.0022242 -1 5 C-0.67 3.35 -0.34 1.7 0 0 Z " fill="#E0E5F8" transform="translate(186,106)"/>
<path d="M0 0 C1 3 1 3 0.0625 5.1875 C-0.4634375 6.0846875 -0.4634375 6.0846875 -1 7 C-1.99 6.34 -2.98 5.68 -4 5 C-4 4.34 -4 3.68 -4 3 C-2 1.375 -2 1.375 0 0 Z " fill="#E9EDFA" transform="translate(178,119)"/>
</svg>
