<svg width="20" height="20" viewBox="0 0 20 20" fill="none" xmlns="http://www.w3.org/2000/svg">
<path d="M9.16667 1.66675C6.02397 1.66675 4.45262 1.66675 3.47631 2.60736C2.5 3.54798 2.5 5.06188 2.5 8.08969V14.9841C2.5 16.9057 2.5 17.8664 3.14404 18.2103C4.39123 18.8762 6.73067 16.6544 7.84167 15.9854C8.486 15.5974 8.80817 15.4034 9.16667 15.4034C9.52517 15.4034 9.84733 15.5974 10.4917 15.9854C11.6027 16.6544 13.9421 18.8762 15.1893 18.2103C15.8333 17.8664 15.8333 16.9057 15.8333 14.9841V10.4167" stroke="#1E1E1E" stroke-width="1.5" stroke-linecap="round" stroke-linejoin="round"/>
<path d="M2.91666 5.8335H8.33333" stroke="#1E1E1E" stroke-width="1.5" stroke-linecap="round"/>
<path d="M14.1667 8.33341V1.66675M10.8333 5.00008H17.5" stroke="#1E1E1E" stroke-width="1.5" stroke-linecap="round"/>
</svg>
