<svg width="405" height="405" viewBox="0 0 405 405" fill="none" xmlns="http://www.w3.org/2000/svg">
<path d="M50.328 150.506C50.2956 151.217 50.3097 194.74 50.3097 194.942C50.2985 197.154 50.7298 199.346 51.5783 201.388C52.4267 203.431 53.6752 205.283 55.2501 206.836C56.8251 208.389 58.6948 209.611 60.7491 210.431C62.8035 211.25 65.001 211.651 67.2124 211.608C69.6385 211.633 72.0346 212.147 74.2574 213.12C76.4802 214.092 78.484 215.503 80.149 217.268C81.8139 219.032 83.1058 221.115 83.9473 223.391C84.7888 225.666 85.1627 228.088 85.0466 230.512V258.874H124.854C124.844 258.309 124.911 229.414 124.854 228.647C124.58 224.428 122.711 220.471 119.628 217.578C116.545 214.685 112.477 213.073 108.249 213.068C105.85 213.07 103.474 212.595 101.261 211.67C99.0471 210.744 97.0399 209.388 95.356 207.679C93.6722 205.97 92.3453 203.943 91.4528 201.716C90.5603 199.489 90.12 197.106 90.1577 194.708V192.537C88.9857 191.763 87.9337 190.821 87.0351 189.742C84.6335 186.874 83.404 183.205 83.5926 179.469V178.659H59.3777C59.1843 178.657 58.9995 178.579 58.863 178.442C58.7264 178.305 58.6487 178.12 58.6467 177.926V150.386C58.6493 150.193 58.7271 150.009 58.8637 149.872C59.0002 149.736 59.1846 149.658 59.3777 149.655H83.4752C83.0618 145.476 81.082 141.608 77.9336 138.828C74.7853 136.049 70.7016 134.564 66.5033 134.672C62.3049 134.78 58.303 136.473 55.3016 139.41C52.3003 142.348 50.5219 146.313 50.3239 150.508L50.328 150.506ZM114.67 249.569H97.1379C96.9504 249.559 96.7738 249.478 96.6446 249.341C96.5154 249.205 96.4433 249.025 96.4433 248.837C96.4433 248.649 96.5154 248.468 96.6446 248.332C96.7738 248.196 96.9504 248.115 97.1379 248.105H114.67C114.858 248.115 115.034 248.196 115.164 248.332C115.293 248.468 115.365 248.649 115.365 248.837C115.365 249.025 115.293 249.205 115.164 249.341C115.034 249.478 114.858 249.559 114.67 249.569ZM114.67 244.12H97.1379C96.9504 244.11 96.7738 244.028 96.6446 243.892C96.5154 243.756 96.4433 243.575 96.4433 243.387C96.4433 243.2 96.5154 243.019 96.6446 242.883C96.7738 242.747 96.9504 242.665 97.1379 242.655H114.67C114.858 242.665 115.034 242.747 115.164 242.883C115.293 243.019 115.365 243.2 115.365 243.387C115.365 243.575 115.293 243.756 115.164 243.892C115.034 244.028 114.858 244.11 114.67 244.12ZM111.633 221.136C111.82 221.146 111.997 221.227 112.126 221.363C112.255 221.499 112.327 221.68 112.327 221.868C112.327 222.056 112.255 222.236 112.126 222.372C111.997 222.509 111.82 222.59 111.633 222.6H94.1004C93.9129 222.59 93.7363 222.509 93.6071 222.372C93.4779 222.236 93.4058 222.056 93.4058 221.868C93.4058 221.68 93.4779 221.499 93.6071 221.363C93.7363 221.227 93.9129 221.146 94.1004 221.136H111.633ZM89.0399 216.219H106.572C106.76 216.229 106.936 216.31 107.066 216.447C107.195 216.583 107.267 216.763 107.267 216.951C107.267 217.139 107.195 217.319 107.066 217.456C106.936 217.592 106.76 217.673 106.572 217.683H89.0399C88.8524 217.673 88.6758 217.592 88.5466 217.456C88.4174 217.319 88.3453 217.139 88.3453 216.951C88.3453 216.763 88.4174 216.583 88.5466 216.447C88.6758 216.31 88.8524 216.229 89.0399 216.219Z" fill="white"/>
<path d="M83.4799 149.647H59.3824C59.1893 149.65 59.0049 149.728 58.8684 149.864C58.7318 150.001 58.654 150.185 58.6514 150.378V177.918C58.6535 178.112 58.7311 178.297 58.8677 178.434C59.0043 178.571 59.189 178.649 59.3824 178.651H83.5832C83.569 148.811 83.5994 150.99 83.4799 149.647ZM79.8713 161.755C77.6337 164.067 75.305 166.291 73.0451 168.581C72.9734 168.655 72.8863 168.711 72.7901 168.747C72.6938 168.783 72.5908 168.798 72.4884 168.789C72.3861 168.781 72.2868 168.75 72.1979 168.698C72.1089 168.647 72.0324 168.576 71.9738 168.492C71.6539 168.397 71.7896 168.492 69.6248 165.396C69.0842 164.62 70.3538 163.889 70.8884 164.657L72.5368 167.02C74.6367 164.92 76.7022 162.783 78.8366 160.72C78.9764 160.596 79.1581 160.531 79.3447 160.536C79.5314 160.542 79.7088 160.619 79.8408 160.751C79.9728 160.883 80.0495 161.06 80.0552 161.247C80.0609 161.433 79.9951 161.615 79.8713 161.755Z" fill="#FF4848"/>
<path d="M114.066 163.486C113.143 166.064 113.256 167.633 113.367 179.686C113.453 182.569 112.7 185.414 111.2 187.878C109.7 190.341 107.517 192.316 104.917 193.563H137.195V167.803C137.234 165.384 136.552 163.008 135.237 160.977C134.019 159.13 132.312 157.659 130.306 156.727C128.3 155.796 126.074 155.44 123.878 155.7C121.681 155.961 119.6 156.827 117.868 158.201C116.135 159.576 114.819 161.406 114.066 163.486Z" fill="white"/>
<path d="M203.803 146.48H174.845C174.717 146.478 174.592 146.443 174.482 146.378C174.371 146.313 174.28 146.22 174.216 146.109C174.152 145.998 174.119 145.872 174.118 145.744C174.118 145.616 174.15 145.49 174.213 145.379C174.329 145.176 197.618 105.18 198.331 103.979C198.381 103.897 198.447 103.824 198.525 103.767C198.603 103.71 198.692 103.668 198.786 103.645C198.88 103.622 198.977 103.618 199.073 103.632C199.169 103.647 199.261 103.68 199.343 103.73C200.989 106.116 202.477 108.606 203.798 111.184C203.798 111.184 203.798 99.4597 203.798 96.2399C203.804 91.9658 204.898 87.7634 206.978 84.0292C204.346 79.6989 200.368 76.3494 195.653 74.4925C190.938 72.6356 185.744 72.3734 180.866 73.746C175.988 75.1186 171.694 78.0505 168.639 82.0937C165.584 86.1369 163.936 91.0691 163.949 96.1367V227.909C164.064 230.485 163.428 233.04 162.118 235.26C160.807 237.481 158.878 239.272 156.567 240.416H178.352C175.636 235.272 174.738 229.361 175.804 223.642C176.87 217.923 179.838 212.733 184.225 208.913C189.731 203.865 196.496 200.394 203.809 198.867L203.803 146.48ZM166.265 121.552C170.008 114.781 175.109 108.856 181.25 104.15C181.333 104.101 181.424 104.069 181.52 104.056C181.615 104.042 181.712 104.048 181.805 104.072C181.898 104.096 181.985 104.139 182.061 104.197C182.138 104.255 182.202 104.328 182.25 104.411C182.343 104.58 182.368 104.778 182.319 104.964C182.271 105.15 182.153 105.311 181.989 105.413C176.066 109.988 171.146 115.733 167.537 122.29C167.073 123.12 165.809 122.377 166.265 121.552ZM170.503 125.214C174.247 118.443 179.348 112.518 185.488 107.811C185.571 107.762 185.663 107.73 185.758 107.717C185.853 107.703 185.95 107.709 186.043 107.733C186.136 107.758 186.223 107.8 186.3 107.858C186.376 107.916 186.44 107.989 186.489 108.072C186.582 108.241 186.606 108.439 186.558 108.625C186.509 108.812 186.391 108.972 186.228 109.074C180.299 113.65 175.376 119.395 171.763 125.955C171.313 126.777 170.044 126.038 170.503 125.214Z" fill="white"/>
<path d="M205.266 146.48H203.802V198.867C204.286 198.762 204.778 198.681 205.266 198.59V146.48Z" fill="#FFD2D2"/>
<path d="M199.603 103.98C199.537 103.871 199.445 103.781 199.334 103.719C199.223 103.657 199.099 103.624 198.972 103.624C198.845 103.624 198.72 103.657 198.609 103.719C198.498 103.781 198.406 103.871 198.34 103.98C197.53 105.343 174.242 145.355 174.222 145.379C174.159 145.49 174.126 145.616 174.127 145.744C174.127 145.872 174.161 145.998 174.225 146.109C174.289 146.22 174.38 146.313 174.49 146.378C174.601 146.443 174.726 146.478 174.854 146.48H210.362V122.448L199.603 103.98ZM198.477 121.8C198.487 121.612 198.569 121.436 198.705 121.306C198.841 121.177 199.022 121.105 199.209 121.105C199.397 121.105 199.578 121.177 199.714 121.306C199.85 121.436 199.932 121.612 199.942 121.8V132.166C199.932 132.353 199.85 132.53 199.714 132.659C199.578 132.788 199.397 132.86 199.209 132.86C199.022 132.86 198.841 132.788 198.705 132.659C198.569 132.53 198.487 132.353 198.477 132.166V121.8ZM200.195 135.705V137.477C200.185 137.665 200.103 137.841 199.967 137.971C199.831 138.1 199.65 138.172 199.463 138.172C199.275 138.172 199.094 138.1 198.958 137.971C198.822 137.841 198.74 137.665 198.731 137.477V135.705C198.74 135.518 198.822 135.341 198.958 135.212C199.094 135.083 199.275 135.011 199.463 135.011C199.65 135.011 199.831 135.083 199.967 135.212C200.103 135.341 200.185 135.518 200.195 135.705Z" fill="#CCEAFF"/>
<path d="M184.218 208.913C179.826 212.73 176.855 217.921 175.789 223.641C174.723 229.361 175.624 235.274 178.346 240.416C188.066 258.615 215.887 264.627 235.981 254.071V202.935C219.875 194.439 197.972 196.235 184.218 208.913Z" fill="#FF4848"/>
<path d="M237.451 105.881V269.489C237.632 272.153 237.017 274.811 235.683 277.123C234.348 279.436 232.355 281.299 229.958 282.475H264.667C267.569 282.61 270.422 281.694 272.704 279.897C274.987 278.099 276.545 275.539 277.094 272.686C277.427 269.932 277.499 267.152 277.309 264.384V229.23C272.876 229.093 268.676 227.218 265.614 224.01C262.552 220.802 260.875 216.518 260.945 212.084V106.47C261.063 104.881 260.858 103.283 260.34 101.775C259.823 100.268 259.005 98.8807 257.935 97.6989C256.865 96.517 255.566 95.565 254.117 94.9006C252.668 94.2362 251.099 93.8732 249.505 93.8338C247.911 93.7944 246.326 94.0793 244.846 94.6712C243.366 95.2632 242.022 96.1498 240.895 97.2773C239.768 98.4047 238.881 99.7495 238.29 101.23C237.699 102.71 237.414 104.296 237.455 105.889L237.451 105.881Z" fill="white"/>
<path d="M294.874 177.201C294.733 179.183 294.697 181.171 294.765 183.157H331.061C331.061 181.517 331.124 179.852 331.035 178.212C330.778 173.67 328.825 169.391 325.562 166.22C322.3 163.05 317.967 161.22 313.419 161.093C308.872 160.965 304.443 162.55 301.009 165.533C297.574 168.516 295.385 172.679 294.874 177.199V177.201Z" fill="white"/>
<path d="M294.683 213.773C294.424 216.794 293.355 219.689 291.588 222.152C289.821 224.616 287.422 226.558 284.644 227.772C284.644 227.772 317.475 227.81 319.445 227.772C321.676 227.721 323.869 227.188 325.875 226.209C327.88 225.23 329.65 223.829 331.063 222.102V213.779L294.683 213.773Z" fill="white"/>
<path d="M286.956 183.157C283.229 183.147 279.626 184.496 276.823 186.953C274.02 189.409 272.21 192.804 271.731 196.5C271.253 200.196 272.139 203.94 274.224 207.03C276.309 210.119 279.449 212.342 283.056 213.281C285.605 213.945 282.533 213.773 331.06 213.773V183.157H286.956Z" fill="#43F7B2"/>
<path d="M373.84 179.328C373.839 176.738 373.328 174.174 372.335 171.781C371.342 169.389 369.888 167.216 368.055 165.387C366.221 163.557 364.046 162.106 361.652 161.118C359.258 160.13 356.692 159.623 354.102 159.627H313.469C310.072 159.57 306.717 160.38 303.72 161.98C303.72 161.98 303.72 104.917 303.652 104.207C303.327 100.949 301.802 97.9289 299.374 95.7328C296.947 93.5368 293.789 92.3217 290.515 92.3238H252.891C251.965 86.4836 248.982 81.1667 244.48 77.3333C239.977 73.4998 234.253 71.4024 228.34 71.4198H187.658C187.455 71.4886 169.062 70.5753 163.651 88.5877C162.668 92.0173 162.275 95.5889 162.489 99.1501V154.149H126.369C126.479 152.119 126.379 150.084 126.071 148.074C125.321 143.897 123.124 140.117 119.865 137.398C116.607 134.678 112.495 133.192 108.251 133.2H67.5225C65.3404 133.186 63.1695 133.514 61.089 134.173C57.8557 135.276 55.0013 137.274 52.857 139.933C50.7126 142.593 49.3661 145.806 48.9735 149.2C48.7953 151.081 48.9107 147.13 48.8499 194.827C48.8234 199.256 50.4185 203.541 53.3342 206.874C56.25 210.207 60.2847 212.358 64.6773 212.921C65.8741 213.075 67.0689 213.028 68.2677 213.123C72.2261 213.441 75.9408 215.163 78.7416 217.978C81.5424 220.793 83.245 224.517 83.5422 228.477C83.6091 229.441 83.3397 227.084 83.5848 259.611C83.5869 259.804 83.6646 259.989 83.8012 260.126C83.9378 260.262 84.1226 260.34 84.3158 260.342H125.626C125.819 260.339 126.003 260.261 126.139 260.125C126.276 259.988 126.354 259.804 126.357 259.611C126.357 259.611 126.357 230.046 126.357 229.439C126.289 224.685 124.352 220.148 120.965 216.811C117.578 213.474 113.014 211.604 108.259 211.606C106.076 211.607 103.913 211.178 101.895 210.343C99.8773 209.508 98.0436 208.284 96.4989 206.74C94.9542 205.197 93.7286 203.364 92.8922 201.347C92.0557 199.329 91.6248 197.167 91.624 194.983V193.394C96.5022 195.894 104.163 195.032 104.163 195.032H137.197C137.197 231.996 137.059 227.879 137.425 230.959C137.993 234.004 139.602 236.757 141.977 238.744C144.352 240.732 147.345 241.832 150.442 241.854C150.645 241.913 149.296 241.878 179.197 241.878C178.9 241.399 178.617 240.912 178.349 240.416H156.572C158.877 239.265 160.8 237.472 162.109 235.253C163.419 233.034 164.059 230.484 163.953 227.91C163.953 227.91 163.953 98.1558 163.953 96.1369C163.943 93.0291 164.558 89.9511 165.762 87.0859C166.966 84.2207 168.734 81.627 170.96 79.459C173.187 77.291 175.827 75.5931 178.723 74.4663C181.62 73.3395 184.713 72.8069 187.82 72.9C191.684 73.036 195.454 74.1237 198.797 76.0666C202.14 78.0095 204.951 80.7474 206.982 84.0375C204.901 87.771 203.807 91.9739 203.803 96.2483V111.193L205.265 113.704C205.265 94.5655 205.214 95.4079 205.447 93.1338C205.789 90.4846 206.594 87.9162 207.827 85.5462C209.538 89.0169 210.408 92.8424 210.364 96.712V197.903C219.209 197.123 228.095 198.868 235.988 202.935V254.071C228.092 258.131 219.21 259.879 210.364 259.113C210.364 259.113 210.334 267.126 210.364 270.37C210.394 273.854 211.751 277.196 214.159 279.715C216.567 282.233 219.844 283.739 223.324 283.925C226.12 284.051 263.836 283.941 264.039 283.937C271.434 283.838 275.856 280.537 277.9 275.165C278.521 273.417 278.815 271.569 278.766 269.714V229.26H318.89C323.44 229.25 327.807 227.469 331.066 224.293V306.806C331.068 306.999 331.146 307.184 331.282 307.321C331.419 307.458 331.604 307.536 331.797 307.539H373.107C373.3 307.536 373.485 307.457 373.621 307.321C373.758 307.184 373.836 306.999 373.838 306.806C373.838 306.806 373.844 181.118 373.84 179.328ZM108.261 213.069C112.488 213.077 116.554 214.691 119.636 217.583C122.719 220.475 124.588 224.429 124.866 228.647C124.939 229.89 124.828 257.339 124.866 258.874H85.0488V230.512C85.1519 228.092 84.7691 225.675 83.9229 223.406C83.0768 221.136 81.7845 219.059 80.1223 217.297C78.4601 215.535 76.4617 214.124 74.2451 213.147C72.0286 212.17 69.6387 211.647 67.2167 211.608C65.0071 211.644 62.8125 211.239 60.7611 210.418C58.7097 209.596 56.8427 208.373 55.2691 206.822C53.6954 205.27 52.4468 203.42 51.596 201.381C50.7452 199.341 50.3094 197.153 50.314 194.943C50.314 193.687 50.2148 153.118 50.3322 150.506C50.5326 146.313 52.3115 142.352 55.3119 139.416C58.3122 136.481 62.3119 134.789 66.5081 134.68C70.7042 134.571 74.7861 136.054 77.9344 138.83C81.0827 141.606 83.0643 145.471 83.4815 149.648C83.8419 153.787 83.2668 179.188 83.8035 182.742C84.1537 184.725 84.8974 186.618 85.9909 188.309C87.0843 190 88.5053 191.455 90.1701 192.588V194.702C90.133 197.101 90.5736 199.483 91.4662 201.71C92.3588 203.937 93.6856 205.965 95.3693 207.674C97.053 209.383 99.0599 210.74 101.273 211.667C103.487 212.593 105.862 213.069 108.261 213.069ZM137.197 193.566C119.19 193.622 110.128 193.55 104.918 193.566C107.516 192.316 109.697 190.34 111.196 187.877C112.696 185.415 113.45 182.57 113.368 179.688C113.253 168.055 113.14 166.101 114.067 163.488C114.827 161.415 116.146 159.592 117.879 158.223C119.612 156.853 121.691 155.991 123.884 155.732C126.078 155.473 128.3 155.827 130.304 156.755C132.309 157.683 134.017 159.148 135.238 160.988C136.548 163.021 137.229 165.395 137.197 167.814V193.566ZM277.086 272.687C276.524 275.533 274.963 278.085 272.683 279.881C270.404 281.676 267.557 282.596 264.658 282.475H229.952C232.339 281.287 234.322 279.421 235.655 277.111C236.987 274.802 237.61 272.15 237.444 269.489V105.881C237.414 104.262 237.712 102.653 238.318 101.151C238.924 99.6484 239.828 98.2841 240.974 97.1393C242.423 95.7203 244.215 94.7009 246.176 94.1803C248.136 93.6596 250.198 93.6555 252.16 94.1683C254.122 94.6811 255.918 95.6934 257.373 97.1066C258.828 98.5197 259.893 100.286 260.462 102.232C261.143 104.662 261.453 95.4099 260.932 212.076C260.877 216.506 262.559 220.781 265.618 223.986C268.677 227.191 272.869 229.07 277.296 229.222V264.376C277.488 267.147 277.417 269.929 277.086 272.687ZM319.445 227.77C318.386 227.788 325.914 227.77 284.643 227.77C287.416 226.549 289.811 224.606 291.577 222.143C293.343 219.681 294.415 216.79 294.683 213.771L288.796 213.812C283.207 213.85 277.833 212.552 274.06 206.767C272.566 204.452 271.725 201.778 271.624 199.025C271.523 196.272 272.167 193.543 273.487 191.125C274.808 188.708 276.756 186.691 279.127 185.289C281.497 183.886 284.203 183.149 286.958 183.155H294.766C294.766 180.32 294.705 179.308 294.875 177.2C295.386 172.679 297.575 168.516 301.01 165.533C304.444 162.55 308.873 160.965 313.421 161.093C317.968 161.22 322.301 163.05 325.564 166.22C328.826 169.391 330.779 173.671 331.036 178.212C331.082 179.109 331.062 176.88 331.062 222.096C329.647 223.821 327.877 225.221 325.872 226.2C323.867 227.18 321.675 227.715 319.445 227.77Z" fill="#FFD2D2"/>
<path d="M114.671 248.104H97.1389C96.9514 248.114 96.7748 248.196 96.6456 248.332C96.5164 248.468 96.4443 248.649 96.4443 248.836C96.4443 249.024 96.5164 249.205 96.6456 249.341C96.7748 249.477 96.9514 249.559 97.1389 249.569H114.671C114.859 249.559 115.035 249.477 115.165 249.341C115.294 249.205 115.366 249.024 115.366 248.836C115.366 248.649 115.294 248.468 115.165 248.332C115.035 248.196 114.859 248.114 114.671 248.104Z" fill="#FF4848"/>
<path d="M97.1389 244.12H114.671C114.859 244.11 115.035 244.028 115.165 243.892C115.294 243.756 115.366 243.575 115.366 243.388C115.366 243.2 115.294 243.019 115.165 242.883C115.035 242.747 114.859 242.665 114.671 242.656H97.1389C96.9514 242.665 96.7748 242.747 96.6456 242.883C96.5164 243.019 96.4443 243.2 96.4443 243.388C96.4443 243.575 96.5164 243.756 96.6456 243.892C96.7748 244.028 96.9514 244.11 97.1389 244.12Z" fill="#FF4848"/>
<path d="M94.0998 222.6H111.632C111.82 222.59 111.996 222.509 112.126 222.373C112.255 222.236 112.327 222.056 112.327 221.868C112.327 221.68 112.255 221.5 112.126 221.364C111.996 221.227 111.82 221.146 111.632 221.136H94.0998C93.9123 221.146 93.7358 221.227 93.6065 221.364C93.4773 221.5 93.4053 221.68 93.4053 221.868C93.4053 222.056 93.4773 222.236 93.6065 222.373C93.7358 222.509 93.9123 222.59 94.0998 222.6Z" fill="#FF4848"/>
<path d="M89.0412 217.688H106.574C106.761 217.678 106.938 217.596 107.067 217.46C107.196 217.324 107.268 217.143 107.268 216.956C107.268 216.768 107.196 216.587 107.067 216.451C106.938 216.315 106.761 216.233 106.574 216.224H89.0412C88.8537 216.233 88.6772 216.315 88.5479 216.451C88.4187 216.587 88.3467 216.768 88.3467 216.956C88.3467 217.143 88.4187 217.324 88.5479 217.46C88.6772 217.596 88.8537 217.678 89.0412 217.688Z" fill="#FF4848"/>
<path d="M124.954 268.011C125.142 268.001 125.318 267.919 125.448 267.783C125.577 267.647 125.649 267.466 125.649 267.279C125.649 267.091 125.577 266.91 125.448 266.774C125.318 266.638 125.142 266.557 124.954 266.547H84.3268C84.1352 266.556 83.955 266.64 83.8247 266.781C83.6945 266.922 83.6247 267.108 83.6302 267.3C83.6348 267.486 83.7104 267.662 83.8416 267.794C83.9727 267.925 84.1493 268.002 84.3349 268.007C98.117 268.248 113.08 268.215 124.954 268.011Z" fill="#FF4848"/>
<path d="M84.3273 272.98H124.955C125.142 272.97 125.319 272.889 125.448 272.752C125.577 272.616 125.649 272.436 125.649 272.248C125.649 272.06 125.577 271.88 125.448 271.743C125.319 271.607 125.142 271.526 124.955 271.516H84.3273C84.1399 271.526 83.9633 271.607 83.8341 271.743C83.7048 271.88 83.6328 272.06 83.6328 272.248C83.6328 272.436 83.7048 272.616 83.8341 272.752C83.9633 272.889 84.1399 272.97 84.3273 272.98Z" fill="#FF4848"/>
<path d="M373.003 332.116H332.384C332.197 332.126 332.02 332.207 331.891 332.344C331.762 332.48 331.689 332.66 331.689 332.848C331.689 333.036 331.762 333.216 331.891 333.353C332.02 333.489 332.197 333.57 332.384 333.58H373.003C373.191 333.57 373.368 333.489 373.497 333.353C373.626 333.216 373.698 333.036 373.698 332.848C373.698 332.66 373.626 332.48 373.497 332.344C373.368 332.207 373.191 332.126 373.003 332.116Z" fill="#78B5FF"/>
<path d="M373.003 326.632H332.384C332.197 326.642 332.02 326.724 331.891 326.86C331.762 326.996 331.689 327.177 331.689 327.364C331.689 327.552 331.762 327.733 331.891 327.869C332.02 328.005 332.197 328.086 332.384 328.096H373.003C373.191 328.086 373.368 328.005 373.497 327.869C373.626 327.733 373.698 327.552 373.698 327.364C373.698 327.177 373.626 326.996 373.497 326.86C373.368 326.724 373.191 326.642 373.003 326.632Z" fill="#78B5FF"/>
<path d="M125.627 277.905C125.595 277.752 125.51 277.616 125.387 277.52C125.264 277.424 125.111 277.374 124.955 277.38H84.3274C83.6389 277.38 83.2825 278.419 83.9588 278.743C86.2835 279.861 103.443 288.178 104.253 288.502C104.938 288.777 105.873 288.097 106.495 287.797C117.944 282.293 89.1165 294.988 125.234 278.786C125.323 278.761 125.405 278.717 125.475 278.656C125.544 278.596 125.6 278.521 125.637 278.437C125.675 278.353 125.693 278.262 125.691 278.17C125.69 278.078 125.668 277.987 125.627 277.905Z" fill="#FF4848"/>
<path d="M373.379 321.009C370.481 319.63 353.882 311.57 353.084 311.25C352.4 310.975 351.454 311.655 350.843 311.955C334.944 319.599 360.421 307.334 332.01 321.009C331.336 321.333 331.688 322.371 332.379 322.371H373.002C373.158 322.377 373.311 322.328 373.434 322.233C373.557 322.137 373.642 322.001 373.675 321.849C373.714 321.775 373.737 321.694 373.743 321.61C373.749 321.527 373.738 321.443 373.71 321.364C373.682 321.285 373.639 321.213 373.582 321.152C373.525 321.091 373.456 321.042 373.379 321.009Z" fill="#78B5FF"/>
<path d="M368.653 125.59V144.301C368.663 144.489 368.745 144.665 368.881 144.795C369.017 144.924 369.198 144.996 369.385 144.996C369.573 144.996 369.754 144.924 369.89 144.795C370.026 144.665 370.108 144.489 370.117 144.301V125.59C370.108 125.403 370.026 125.226 369.89 125.097C369.754 124.968 369.573 124.896 369.385 124.896C369.198 124.896 369.017 124.968 368.881 125.097C368.745 125.226 368.663 125.403 368.653 125.59Z" fill="black"/>
<path d="M387.584 132.658C382.614 137.463 377.726 142.352 372.919 147.325C372.795 147.465 372.729 147.647 372.735 147.833C372.74 148.02 372.817 148.197 372.949 148.329C373.081 148.461 373.259 148.538 373.445 148.544C373.632 148.549 373.814 148.484 373.953 148.36C378.923 143.552 383.812 138.663 388.62 133.693C388.748 133.553 388.817 133.37 388.813 133.181C388.809 132.992 388.732 132.812 388.598 132.678C388.464 132.544 388.284 132.468 388.095 132.464C387.906 132.46 387.723 132.53 387.584 132.658Z" fill="black"/>
<path d="M394.165 151.156H377.982C377.794 151.166 377.618 151.247 377.488 151.384C377.359 151.52 377.287 151.7 377.287 151.888C377.287 152.076 377.359 152.256 377.488 152.393C377.618 152.529 377.794 152.61 377.982 152.62H394.165C394.353 152.61 394.529 152.529 394.659 152.393C394.788 152.256 394.86 152.076 394.86 151.888C394.86 151.7 394.788 151.52 394.659 151.384C394.529 151.247 394.353 151.166 394.165 151.156Z" fill="black"/>
<path d="M33.0824 180.488H10.8297C10.6358 180.488 10.4498 180.565 10.3127 180.702C10.1757 180.839 10.0986 181.025 10.0986 181.219C10.0986 181.413 10.1757 181.599 10.3127 181.736C10.4498 181.873 10.6358 181.95 10.8297 181.95H33.0824C33.2763 181.95 33.4622 181.873 33.5993 181.736C33.7364 181.599 33.8134 181.413 33.8134 181.219C33.8134 181.025 33.7364 180.839 33.5993 180.702C33.4622 180.565 33.2763 180.488 33.0824 180.488Z" fill="black"/>
<path d="M34.0801 176.679C34.2199 176.803 34.4016 176.869 34.5883 176.863C34.7749 176.857 34.9523 176.781 35.0843 176.649C35.2164 176.517 35.293 176.339 35.2987 176.153C35.3044 175.966 35.2386 175.784 35.1149 175.645C30.9744 171.36 26.7611 167.149 22.4748 163.013C22.335 162.889 22.1533 162.823 21.9666 162.829C21.78 162.834 21.6026 162.911 21.4706 163.043C21.3385 163.175 21.2619 163.353 21.2562 163.539C21.2505 163.726 21.3163 163.908 21.44 164.047C25.5805 168.326 29.7938 172.536 34.0801 176.679Z" fill="black"/>
<path d="M34.5857 185.759L22.4478 197.897C22.3241 198.037 22.2583 198.218 22.264 198.405C22.2697 198.592 22.3464 198.769 22.4784 198.901C22.6104 199.033 22.7878 199.11 22.9744 199.115C23.1611 199.121 23.3428 199.055 23.4826 198.932L35.6205 186.794C35.7442 186.654 35.81 186.472 35.8043 186.286C35.7986 186.099 35.722 185.922 35.5899 185.79C35.4579 185.658 35.2805 185.581 35.0939 185.575C34.9073 185.569 34.7255 185.635 34.5857 185.759Z" fill="black"/>
<path d="M186.121 259.698C183.873 263.021 181.221 266.051 178.223 268.718C177.521 269.345 178.558 270.378 179.258 269.752C182.342 266.997 185.071 263.868 187.38 260.437C187.917 259.654 186.645 258.921 186.121 259.698Z" fill="black"/>
<path d="M188.524 262.42L186.019 274.57C185.828 275.489 187.234 275.882 187.436 274.961L189.941 262.811C190.121 261.891 188.71 261.498 188.524 262.42Z" fill="black"/>
<path d="M182.376 259.425C178.375 261.445 174.23 263.169 169.975 264.582C169.086 264.878 169.467 266.294 170.364 266C174.741 264.546 179.005 262.773 183.122 260.694C183.956 260.265 183.217 258.997 182.376 259.425Z" fill="black"/>
<path d="M186.215 109.074C186.379 108.972 186.497 108.812 186.545 108.625C186.594 108.439 186.569 108.241 186.476 108.072C186.428 107.989 186.364 107.916 186.287 107.858C186.211 107.8 186.123 107.758 186.03 107.733C185.937 107.709 185.841 107.703 185.745 107.717C185.65 107.73 185.559 107.762 185.476 107.811C179.336 112.518 174.234 118.443 170.491 125.214C170.035 126.038 171.301 126.777 171.755 125.951C175.367 119.393 180.289 113.649 186.215 109.074Z" fill="black"/>
<path d="M181.98 105.413C182.145 105.312 182.264 105.151 182.314 104.965C182.364 104.778 182.34 104.58 182.248 104.41C182.199 104.327 182.135 104.255 182.059 104.197C181.982 104.138 181.895 104.096 181.802 104.072C181.709 104.047 181.612 104.042 181.517 104.055C181.422 104.068 181.33 104.1 181.247 104.149C175.107 108.856 170.005 114.78 166.262 121.552C165.807 122.376 167.072 123.115 167.526 122.289C171.136 115.732 176.056 109.988 181.98 105.413Z" fill="black"/>
<path d="M318.485 197.292C315.083 196.55 313.886 202.17 311.618 201.544C310.588 201.263 310.049 199.9 309.49 199.104C309.165 198.533 308.706 198.051 308.152 197.698C307.599 197.345 306.967 197.133 306.313 197.079C302.283 197.369 301.35 200.961 298.82 202.358C295.481 204.195 293.353 198.527 289.619 199.082C289.215 199.121 288.824 199.245 288.472 199.445C288.12 199.646 287.814 199.919 287.574 200.246C287.335 200.573 287.168 200.947 287.083 201.344C286.998 201.74 286.998 202.15 287.083 202.546C287.373 203.44 288.786 203.057 288.501 202.158C288.181 200.833 289.977 200.078 291.271 200.799C292.731 201.467 293.78 202.765 295.167 203.557C295.808 203.932 296.533 204.141 297.275 204.166C298.017 204.192 298.754 204.033 299.42 203.703C300.671 202.947 301.766 201.959 302.648 200.793C303.071 200.181 303.619 199.665 304.254 199.277C304.89 198.89 305.599 198.64 306.337 198.543C307.518 198.59 308.16 199.677 308.729 200.568C309.229 201.583 310.052 202.402 311.07 202.897C311.532 203.052 312.027 203.088 312.507 203.001C312.987 202.914 313.438 202.708 313.817 202.401C314.661 201.684 315.41 200.863 316.045 199.957C316.547 199.361 317.236 198.505 318.114 198.695C319.014 198.901 319.406 197.492 318.485 197.292Z" fill="black"/>
<path d="M217.402 231.895C217.436 233.219 217.384 235.607 215.966 236.289C215.561 236.439 215.115 236.442 214.708 236.297C214.301 236.152 213.958 235.868 213.739 235.495C213.129 234.423 212.867 233.187 212.987 231.96C212.987 231.766 212.91 231.58 212.773 231.443C212.636 231.306 212.45 231.229 212.256 231.229C212.062 231.229 211.877 231.306 211.739 231.443C211.602 231.58 211.525 231.766 211.525 231.96C211.398 233.541 211.791 235.121 212.643 236.459C213.02 237.018 213.563 237.445 214.194 237.681C214.826 237.917 215.515 237.95 216.167 237.775C218.546 237.123 218.931 233.977 218.868 231.903C218.858 231.715 218.777 231.539 218.64 231.41C218.504 231.28 218.324 231.208 218.136 231.208C217.948 231.208 217.768 231.28 217.631 231.41C217.495 231.539 217.414 231.715 217.404 231.903L217.402 231.895Z" fill="black"/>
<path d="M78.8381 160.726C76.7038 162.791 74.6383 164.926 72.5384 167.025L70.89 164.662C70.3554 163.895 69.0857 164.626 69.6264 165.401C71.6231 168.265 71.6271 168.392 71.9754 168.498C72.0799 168.649 72.2403 168.753 72.4215 168.787C72.6026 168.82 72.7896 168.78 72.9413 168.676C73.0831 168.579 79.0163 162.653 79.8729 161.76C79.9967 161.621 80.0624 161.439 80.0568 161.252C80.0511 161.066 79.9744 160.888 79.8424 160.756C79.7104 160.624 79.5329 160.548 79.3463 160.542C79.1597 160.536 78.9779 160.602 78.8381 160.726Z" fill="black"/>
<path d="M220.077 229.622H221.763C221.95 229.612 222.127 229.53 222.256 229.394C222.386 229.258 222.458 229.077 222.458 228.889C222.458 228.701 222.386 228.521 222.256 228.384C222.127 228.248 221.95 228.167 221.763 228.157H220.077C219.889 228.167 219.713 228.248 219.583 228.384C219.454 228.521 219.382 228.701 219.382 228.889C219.382 229.077 219.454 229.258 219.583 229.394C219.713 229.53 219.889 229.612 220.077 229.622Z" fill="black"/>
<path d="M209.945 228.157H208.259C208.072 228.167 207.895 228.248 207.766 228.384C207.637 228.521 207.564 228.701 207.564 228.889C207.564 229.077 207.637 229.258 207.766 229.394C207.895 229.53 208.072 229.612 208.259 229.622H209.945C210.133 229.612 210.31 229.53 210.439 229.394C210.568 229.258 210.64 229.077 210.64 228.889C210.64 228.701 210.568 228.521 210.439 228.384C210.31 228.248 210.133 228.167 209.945 228.157Z" fill="black"/>
<path d="M199.944 132.164V121.798C199.934 121.61 199.852 121.434 199.716 121.305C199.58 121.175 199.399 121.103 199.212 121.103C199.024 121.103 198.843 121.175 198.707 121.305C198.571 121.434 198.489 121.61 198.479 121.798V132.164C198.489 132.351 198.571 132.528 198.707 132.657C198.843 132.786 199.024 132.858 199.212 132.858C199.399 132.858 199.58 132.786 199.716 132.657C199.852 132.528 199.934 132.351 199.944 132.164Z" fill="black"/>
<path d="M198.731 135.704V137.477C198.741 137.665 198.823 137.841 198.959 137.971C199.095 138.1 199.276 138.172 199.464 138.172C199.652 138.172 199.833 138.1 199.969 137.971C200.105 137.841 200.187 137.665 200.197 137.477V135.704C200.187 135.516 200.105 135.34 199.969 135.21C199.833 135.081 199.652 135.009 199.464 135.009C199.276 135.009 199.095 135.081 198.959 135.21C198.823 135.34 198.741 135.516 198.731 135.704Z" fill="black"/>
<path d="M96.7941 168.82H111.903C111.903 168.331 111.906 167.843 111.913 167.356H96.7941C96.6067 167.366 96.4301 167.447 96.3009 167.583C96.1716 167.72 96.0996 167.9 96.0996 168.088C96.0996 168.276 96.1716 168.456 96.3009 168.592C96.4301 168.729 96.6067 168.81 96.7941 168.82Z" fill="#FF4848"/>
<path d="M96.7935 163.369H112.574C112.739 162.871 112.932 162.383 113.154 161.907H96.7935C96.5996 161.907 96.4137 161.984 96.2766 162.121C96.1395 162.258 96.0625 162.444 96.0625 162.638C96.0625 162.832 96.1395 163.018 96.2766 163.155C96.4137 163.292 96.5996 163.369 96.7935 163.369Z" fill="#FF4848"/>
<path d="M114.329 151.906H96.7941C96.6067 151.915 96.4301 151.997 96.3009 152.133C96.1716 152.269 96.0996 152.45 96.0996 152.638C96.0996 152.825 96.1716 153.006 96.3009 153.142C96.4301 153.278 96.6067 153.36 96.7941 153.37H114.327C114.514 153.36 114.691 153.278 114.82 153.142C114.949 153.006 115.021 152.825 115.021 152.638C115.021 152.45 114.949 152.269 114.82 152.133C114.691 151.997 114.514 151.915 114.327 151.906H114.329Z" fill="#FF4848"/>
<path d="M113.316 145.836H95.7814C95.594 145.846 95.4174 145.927 95.2882 146.064C95.159 146.2 95.0869 146.38 95.0869 146.568C95.0869 146.756 95.159 146.937 95.2882 147.073C95.4174 147.209 95.594 147.29 95.7814 147.3H113.314C113.501 147.29 113.678 147.209 113.807 147.073C113.936 146.937 114.008 146.756 114.008 146.568C114.008 146.38 113.936 146.2 113.807 146.064C113.678 145.927 113.501 145.846 113.314 145.836H113.316Z" fill="#FF4848"/>
<path d="M111.292 140.387H93.757C93.5695 140.397 93.393 140.478 93.2638 140.614C93.1345 140.751 93.0625 140.931 93.0625 141.119C93.0625 141.307 93.1345 141.487 93.2638 141.624C93.393 141.76 93.5695 141.841 93.757 141.851H111.289C111.477 141.841 111.654 141.76 111.783 141.624C111.912 141.487 111.984 141.307 111.984 141.119C111.984 140.931 111.912 140.751 111.783 140.614C111.654 140.478 111.477 140.397 111.289 140.387H111.292Z" fill="#FF4848"/>
<path d="M149.021 229.211H162.438C162.485 228.725 162.502 228.236 162.487 227.747H149.021C148.833 227.757 148.657 227.839 148.527 227.975C148.398 228.111 148.326 228.292 148.326 228.479C148.326 228.667 148.398 228.848 148.527 228.984C148.657 229.12 148.833 229.202 149.021 229.211Z" fill="#FF4848"/>
<path d="M149.021 223.311H162.487V221.849H149.021C148.827 221.849 148.641 221.926 148.504 222.063C148.367 222.2 148.29 222.386 148.29 222.58C148.29 222.774 148.367 222.96 148.504 223.097C148.641 223.234 148.827 223.311 149.021 223.311Z" fill="#FF4848"/>
<path d="M149.021 186.014H162.487V184.55H149.021C148.833 184.56 148.657 184.642 148.527 184.778C148.398 184.914 148.326 185.095 148.326 185.282C148.326 185.47 148.398 185.651 148.527 185.787C148.657 185.923 148.833 186.005 149.021 186.014Z" fill="#FF4848"/>
<path d="M149.021 180.565H162.487V179.101H149.021C148.833 179.111 148.657 179.192 148.527 179.328C148.398 179.465 148.326 179.645 148.326 179.833C148.326 180.021 148.398 180.201 148.527 180.337C148.657 180.474 148.833 180.555 149.021 180.565Z" fill="#FF4848"/>
<path d="M149.021 170.564H162.487V169.1H149.021C148.833 169.11 148.657 169.191 148.527 169.327C148.398 169.463 148.326 169.644 148.326 169.832C148.326 170.02 148.398 170.2 148.527 170.336C148.657 170.473 148.833 170.554 149.021 170.564Z" fill="#FF4848"/>
<path d="M148.009 164.494H162.488V163.032H148.009C147.815 163.032 147.63 163.109 147.492 163.246C147.355 163.384 147.278 163.569 147.278 163.763C147.278 163.957 147.355 164.143 147.492 164.28C147.63 164.417 147.815 164.494 148.009 164.494Z" fill="#FF4848"/>
<path d="M274.477 179.123H292.003C292.191 179.114 292.367 179.032 292.497 178.896C292.626 178.76 292.698 178.579 292.698 178.391C292.698 178.204 292.626 178.023 292.497 177.887C292.367 177.751 292.191 177.669 292.003 177.659H274.471C274.283 177.669 274.107 177.751 273.978 177.887C273.848 178.023 273.776 178.204 273.776 178.391C273.776 178.579 273.848 178.76 273.978 178.896C274.107 179.032 274.283 179.114 274.471 179.123H274.477Z" fill="#FF4848"/>
<path d="M274.477 173.054H292.003C292.191 173.045 292.367 172.963 292.497 172.827C292.626 172.691 292.698 172.51 292.698 172.322C292.698 172.135 292.626 171.954 292.497 171.818C292.367 171.682 292.191 171.6 292.003 171.59H274.471C274.283 171.6 274.107 171.682 273.978 171.818C273.848 171.954 273.776 172.135 273.776 172.322C273.776 172.51 273.848 172.691 273.978 172.827C274.107 172.963 274.283 173.045 274.471 173.054H274.477Z" fill="#FF4848"/>
<path d="M274.477 167.605H292.003C292.191 167.595 292.367 167.514 292.497 167.378C292.626 167.241 292.698 167.061 292.698 166.873C292.698 166.685 292.626 166.505 292.497 166.369C292.367 166.232 292.191 166.151 292.003 166.141H274.471C274.283 166.151 274.107 166.232 273.978 166.369C273.848 166.505 273.776 166.685 273.776 166.873C273.776 167.061 273.848 167.241 273.978 167.378C274.107 167.514 274.283 167.595 274.471 167.605H274.477Z" fill="#FF4848"/>
<path d="M274.475 152.593H292.002C292.196 152.593 292.382 152.516 292.519 152.379C292.656 152.242 292.733 152.056 292.733 151.862C292.733 151.668 292.656 151.483 292.519 151.345C292.382 151.208 292.196 151.131 292.002 151.131H274.469C274.275 151.131 274.089 151.208 273.952 151.345C273.815 151.483 273.738 151.668 273.738 151.862C273.738 152.056 273.815 152.242 273.952 152.379C274.089 152.516 274.275 152.593 274.469 152.593H274.475Z" fill="#FF4848"/>
<path d="M274.475 146.525H292.002C292.196 146.525 292.382 146.448 292.519 146.311C292.656 146.174 292.733 145.988 292.733 145.794C292.733 145.6 292.656 145.414 292.519 145.277C292.382 145.14 292.196 145.063 292.002 145.063H274.469C274.275 145.063 274.089 145.14 273.952 145.277C273.815 145.414 273.738 145.6 273.738 145.794C273.738 145.988 273.815 146.174 273.952 146.311C274.089 146.448 274.275 146.525 274.469 146.525H274.475Z" fill="#FF4848"/>
<path d="M274.477 124.62H292.003C292.191 124.61 292.367 124.529 292.497 124.393C292.626 124.256 292.698 124.076 292.698 123.888C292.698 123.7 292.626 123.52 292.497 123.384C292.367 123.247 292.191 123.166 292.003 123.156H274.471C274.283 123.166 274.107 123.247 273.978 123.384C273.848 123.52 273.776 123.7 273.776 123.888C273.776 124.076 273.848 124.256 273.978 124.393C274.107 124.529 274.283 124.61 274.471 124.62H274.477Z" fill="#FF4848"/>
<path d="M274.477 118.551H292.003C292.191 118.541 292.367 118.46 292.497 118.324C292.626 118.188 292.698 118.007 292.698 117.819C292.698 117.632 292.626 117.451 292.497 117.315C292.367 117.179 292.191 117.097 292.003 117.087H274.471C274.283 117.097 274.107 117.179 273.978 117.315C273.848 117.451 273.776 117.632 273.776 117.819C273.776 118.007 273.848 118.188 273.978 118.324C274.107 118.46 274.283 118.541 274.471 118.551H274.477Z" fill="#FF4848"/>
<path d="M361.46 277.081H343.929C343.735 277.081 343.549 277.158 343.412 277.295C343.275 277.432 343.198 277.618 343.198 277.812C343.198 278.006 343.275 278.192 343.412 278.329C343.549 278.466 343.735 278.543 343.929 278.543H361.46C361.654 278.543 361.84 278.466 361.977 278.329C362.114 278.192 362.191 278.006 362.191 277.812C362.191 277.618 362.114 277.432 361.977 277.295C361.84 277.158 361.654 277.081 361.46 277.081Z" fill="#FF4848"/>
<path d="M361.459 271.18H343.929C343.741 271.19 343.565 271.271 343.436 271.407C343.306 271.543 343.234 271.724 343.234 271.912C343.234 272.099 343.306 272.28 343.436 272.416C343.565 272.552 343.741 272.634 343.929 272.644H361.459C361.647 272.634 361.823 272.552 361.953 272.416C362.082 272.28 362.154 272.099 362.154 271.912C362.154 271.724 362.082 271.543 361.953 271.407C361.823 271.271 361.647 271.19 361.459 271.18Z" fill="#FF4848"/>
<path d="M361.459 192.341H343.929C343.741 192.351 343.565 192.432 343.436 192.568C343.306 192.704 343.234 192.885 343.234 193.073C343.234 193.26 343.306 193.441 343.436 193.577C343.565 193.713 343.741 193.795 343.929 193.805H361.459C361.647 193.795 361.823 193.713 361.953 193.577C362.082 193.441 362.154 193.26 362.154 193.073C362.154 192.885 362.082 192.704 361.953 192.568C361.823 192.432 361.647 192.351 361.459 192.341Z" fill="#FF4848"/>
<path d="M361.459 186.891H343.929C343.741 186.901 343.565 186.982 343.436 187.119C343.306 187.255 343.234 187.435 343.234 187.623C343.234 187.811 343.306 187.992 343.436 188.128C343.565 188.264 343.741 188.345 343.929 188.355H361.459C361.647 188.345 361.823 188.264 361.953 188.128C362.082 187.992 362.154 187.811 362.154 187.623C362.154 187.435 362.082 187.255 361.953 187.119C361.823 186.982 361.647 186.901 361.459 186.891Z" fill="#FF4848"/>
<path d="M361.46 180.993H343.929C343.735 180.993 343.549 181.07 343.412 181.207C343.275 181.344 343.198 181.53 343.198 181.724C343.198 181.917 343.275 182.103 343.412 182.241C343.549 182.378 343.735 182.455 343.929 182.455H361.46C361.654 182.455 361.84 182.378 361.977 182.241C362.114 182.103 362.191 181.917 362.191 181.724C362.191 181.53 362.114 181.344 361.977 181.207C361.84 181.07 361.654 180.993 361.46 180.993Z" fill="#FF4848"/>
<path d="M361.46 174.923H343.929C343.735 174.923 343.549 175 343.412 175.137C343.275 175.274 343.198 175.46 343.198 175.654C343.198 175.848 343.275 176.034 343.412 176.171C343.549 176.308 343.735 176.385 343.929 176.385H361.46C361.654 176.385 361.84 176.308 361.977 176.171C362.114 176.034 362.191 175.848 362.191 175.654C362.191 175.46 362.114 175.274 361.977 175.137C361.84 175 361.654 174.923 361.46 174.923Z" fill="#FF4848"/>
<path d="M361.459 235.357H343.929C343.741 235.367 343.565 235.449 343.436 235.585C343.306 235.721 343.234 235.902 343.234 236.089C343.234 236.277 343.306 236.458 343.436 236.594C343.565 236.73 343.741 236.812 343.929 236.822H361.459C361.647 236.812 361.823 236.73 361.953 236.594C362.082 236.458 362.154 236.277 362.154 236.089C362.154 235.902 362.082 235.721 361.953 235.585C361.823 235.449 361.647 235.367 361.459 235.357Z" fill="#FF4848"/>
<path d="M361.459 229.289H343.929C343.741 229.299 343.565 229.38 343.436 229.516C343.306 229.653 343.234 229.833 343.234 230.021C343.234 230.209 343.306 230.389 343.436 230.526C343.565 230.662 343.741 230.743 343.929 230.753H361.459C361.647 230.743 361.823 230.662 361.953 230.526C362.082 230.389 362.154 230.209 362.154 230.021C362.154 229.833 362.082 229.653 361.953 229.516C361.823 229.38 361.647 229.299 361.459 229.289Z" fill="#FF4848"/>
<path d="M361.459 217.938H343.929C343.741 217.948 343.565 218.03 343.436 218.166C343.306 218.302 343.234 218.483 343.234 218.67C343.234 218.858 343.306 219.039 343.436 219.175C343.565 219.311 343.741 219.392 343.929 219.402H361.459C361.647 219.392 361.823 219.311 361.953 219.175C362.082 219.039 362.154 218.858 362.154 218.67C362.154 218.483 362.082 218.302 361.953 218.166C361.823 218.03 361.647 217.948 361.459 217.938Z" fill="#FF4848"/>
<path d="M361.46 211.871H343.929C343.735 211.871 343.549 211.948 343.412 212.086C343.275 212.223 343.198 212.409 343.198 212.602C343.198 212.796 343.275 212.982 343.412 213.119C343.549 213.256 343.735 213.333 343.929 213.333H361.46C361.654 213.333 361.84 213.256 361.977 213.119C362.114 212.982 362.191 212.796 362.191 212.602C362.191 212.409 362.114 212.223 361.977 212.086C361.84 211.948 361.654 211.871 361.46 211.871Z" fill="#FF4848"/>
<path d="M358.423 168.18H340.892C340.698 168.18 340.512 168.257 340.375 168.394C340.238 168.531 340.161 168.717 340.161 168.911C340.161 169.105 340.238 169.291 340.375 169.428C340.512 169.565 340.698 169.642 340.892 169.642H358.423C358.616 169.642 358.802 169.565 358.94 169.428C359.077 169.291 359.154 169.105 359.154 168.911C359.154 168.717 359.077 168.531 358.94 168.394C358.802 168.257 358.616 168.18 358.423 168.18Z" fill="#FF4848"/>
<path d="M353.362 163.124H335.831C335.644 163.134 335.467 163.215 335.338 163.351C335.209 163.487 335.137 163.668 335.137 163.856C335.137 164.043 335.209 164.224 335.338 164.36C335.467 164.496 335.644 164.578 335.831 164.588H353.362C353.549 164.578 353.726 164.496 353.855 164.36C353.984 164.224 354.056 164.043 354.056 163.856C354.056 163.668 353.984 163.487 353.855 163.351C353.726 163.215 353.549 163.134 353.362 163.124Z" fill="#FF4848"/>
<path d="M222.331 185.095H235.989V183.633H222.331C222.137 183.633 221.951 183.71 221.814 183.847C221.677 183.984 221.6 184.17 221.6 184.364C221.6 184.558 221.677 184.744 221.814 184.881C221.951 185.018 222.137 185.095 222.331 185.095Z" fill="#FF4848"/>
<path d="M222.331 179.026H235.989V177.564H222.331C222.137 177.564 221.951 177.641 221.814 177.778C221.677 177.915 221.6 178.101 221.6 178.295C221.6 178.488 221.677 178.674 221.814 178.811C221.951 178.949 222.137 179.026 222.331 179.026Z" fill="#FF4848"/>
<path d="M222.328 173.577H235.987V172.113H222.328C222.141 172.122 221.964 172.204 221.835 172.34C221.706 172.476 221.634 172.657 221.634 172.845C221.634 173.032 221.706 173.213 221.835 173.349C221.964 173.485 222.141 173.567 222.328 173.577Z" fill="#FF4848"/>
<path d="M222.331 153.108H235.989V151.646H222.331C222.137 151.646 221.951 151.723 221.814 151.86C221.677 151.997 221.6 152.183 221.6 152.377C221.6 152.571 221.677 152.757 221.814 152.894C221.951 153.031 222.137 153.108 222.331 153.108Z" fill="#FF4848"/>
<path d="M222.328 147.217H235.987V145.753H222.328C222.141 145.763 221.964 145.844 221.835 145.981C221.706 146.117 221.634 146.297 221.634 146.485C221.634 146.673 221.706 146.853 221.835 146.99C221.964 147.126 222.141 147.207 222.328 147.217Z" fill="#FF4848"/>
<path d="M222.328 141.142H235.987V139.678H222.328C222.141 139.688 221.964 139.77 221.835 139.906C221.706 140.042 221.634 140.223 221.634 140.41C221.634 140.598 221.706 140.779 221.835 140.915C221.964 141.051 222.141 141.132 222.328 141.142Z" fill="#FF4848"/>
<path d="M222.328 135.691H235.987V134.227H222.328C222.141 134.237 221.964 134.318 221.835 134.455C221.706 134.591 221.634 134.771 221.634 134.959C221.634 135.147 221.706 135.327 221.835 135.464C221.964 135.6 222.141 135.681 222.328 135.691Z" fill="#FF4848"/>
<path d="M239.859 92.998H222.328C222.141 93.0079 221.964 93.0893 221.835 93.2255C221.706 93.3617 221.634 93.5423 221.634 93.73C221.634 93.9178 221.706 94.0984 221.835 94.2346C221.964 94.3708 222.141 94.4522 222.328 94.4621H239.859C239.958 94.4673 240.058 94.4522 240.151 94.4178C240.244 94.3834 240.33 94.3303 240.402 94.2618C240.474 94.1933 240.531 94.1109 240.571 94.0194C240.61 93.928 240.63 93.8295 240.63 93.73C240.63 93.6305 240.61 93.5321 240.571 93.4406C240.531 93.3492 240.474 93.2667 240.402 93.1982C240.33 93.1298 240.244 93.0767 240.151 93.0422C240.058 93.0078 239.958 92.9928 239.859 92.998Z" fill="#FF4848"/>
<path d="M238.848 86.9285H221.316C221.128 86.9383 220.952 87.0197 220.822 87.1559C220.693 87.2921 220.621 87.4727 220.621 87.6605C220.621 87.8482 220.693 88.0288 220.822 88.165C220.952 88.3012 221.128 88.3827 221.316 88.3925H238.848C239.036 88.3827 239.212 88.3012 239.341 88.165C239.471 88.0288 239.543 87.8482 239.543 87.6605C239.543 87.4727 239.471 87.2921 239.341 87.1559C239.212 87.0197 239.036 86.9383 238.848 86.9285Z" fill="#FF4848"/>
<path d="M236.824 81.4795H219.292C219.098 81.4795 218.912 81.5565 218.775 81.6936C218.638 81.8307 218.561 82.0167 218.561 82.2105C218.561 82.4044 218.638 82.5903 218.775 82.7274C218.912 82.8645 219.098 82.9416 219.292 82.9416H236.824C237.008 82.9278 237.181 82.8448 237.307 82.7093C237.433 82.5737 237.503 82.3955 237.503 82.2105C237.503 82.0255 237.433 81.8474 237.307 81.7118C237.181 81.5762 237.008 81.4932 236.824 81.4795Z" fill="#FF4848"/>
<path d="M231.76 76.5611H214.23C214.042 76.5709 213.866 76.6524 213.736 76.7886C213.607 76.9248 213.535 77.1054 213.535 77.2931C213.535 77.4809 213.607 77.6615 213.736 77.7977C213.866 77.9339 214.042 78.0153 214.23 78.0252H231.76C231.932 77.995 232.088 77.9051 232.201 77.7712C232.313 77.6373 232.375 77.468 232.375 77.2931C232.375 77.1182 232.313 76.949 232.201 76.8151C232.088 76.6812 231.932 76.5912 231.76 76.5611Z" fill="#FF4848"/>
<path d="M222.328 269.527H235.987V268.063H222.328C222.141 268.073 221.964 268.155 221.835 268.291C221.706 268.427 221.634 268.608 221.634 268.795C221.634 268.983 221.706 269.164 221.835 269.3C221.964 269.436 222.141 269.518 222.328 269.527Z" fill="black"/>
<path d="M222.328 263.625H235.987V262.161H222.328C222.141 262.171 221.964 262.252 221.835 262.388C221.706 262.524 221.634 262.705 221.634 262.893C221.634 263.081 221.706 263.261 221.835 263.397C221.964 263.534 222.141 263.615 222.328 263.625Z" fill="black"/>
<path d="M96.0884 152.663C96.0949 152.848 96.1715 153.024 96.3026 153.155C96.4338 153.287 96.6098 153.363 96.7951 153.37H114.328C114.515 153.36 114.692 153.278 114.821 153.142C114.95 153.006 115.022 152.825 115.022 152.638C115.022 152.45 114.95 152.269 114.821 152.133C114.692 151.997 114.515 151.915 114.328 151.906H96.7931C96.6971 151.909 96.6027 151.931 96.5153 151.971C96.4279 152.011 96.3492 152.068 96.2837 152.138C96.2183 152.209 96.1673 152.291 96.1338 152.381C96.1003 152.471 96.0849 152.567 96.0884 152.663Z" fill="black"/>
<path d="M114.021 146.543C114.015 146.358 113.938 146.182 113.808 146.051C113.677 145.919 113.501 145.843 113.316 145.836H95.7814C95.594 145.846 95.4174 145.928 95.2882 146.064C95.159 146.2 95.0869 146.381 95.0869 146.568C95.0869 146.756 95.159 146.937 95.2882 147.073C95.4174 147.209 95.594 147.29 95.7814 147.3H113.314C113.41 147.297 113.505 147.275 113.592 147.235C113.68 147.195 113.759 147.139 113.825 147.068C113.89 146.998 113.941 146.915 113.975 146.825C114.009 146.735 114.024 146.639 114.021 146.543Z" fill="black"/>
<path d="M111.998 141.094C111.992 140.908 111.916 140.732 111.785 140.601C111.653 140.47 111.477 140.393 111.292 140.387H93.757C93.5695 140.397 93.393 140.479 93.2638 140.615C93.1345 140.751 93.0625 140.932 93.0625 141.119C93.0625 141.307 93.1345 141.488 93.2638 141.624C93.393 141.76 93.5695 141.841 93.757 141.851H111.287C111.482 141.845 111.666 141.762 111.8 141.62C111.933 141.478 112.004 141.289 111.998 141.094Z" fill="black"/>
<path d="M221.622 93.7573C221.629 93.9426 221.705 94.1186 221.836 94.2495C221.968 94.3804 222.144 94.4564 222.329 94.462H239.86C239.956 94.462 240.051 94.4431 240.139 94.4063C240.228 94.3696 240.309 94.3157 240.377 94.2479C240.444 94.18 240.498 94.0994 240.535 94.0107C240.572 93.922 240.591 93.8269 240.591 93.7309C240.591 93.6349 240.572 93.5399 240.535 93.4512C240.498 93.3625 240.444 93.2819 240.377 93.214C240.309 93.1461 240.228 93.0923 240.139 93.0556C240.051 93.0188 239.956 92.9999 239.86 92.9999H222.329C222.135 93.0068 221.952 93.0904 221.819 93.2324C221.687 93.3744 221.616 93.5632 221.622 93.7573Z" fill="black"/>
<path d="M220.611 87.6819C220.617 87.8673 220.694 88.0432 220.825 88.1744C220.956 88.3055 221.132 88.3821 221.317 88.3886H238.848C239.035 88.3788 239.212 88.2973 239.341 88.1611C239.47 88.0249 239.542 87.8443 239.542 87.6566C239.542 87.4688 239.47 87.2883 239.341 87.1521C239.212 87.0159 239.035 86.9344 238.848 86.9246H221.317C221.123 86.9314 220.94 87.015 220.807 87.157C220.675 87.299 220.604 87.4878 220.611 87.6819Z" fill="black"/>
<path d="M218.586 82.2369C218.592 82.4219 218.668 82.5976 218.799 82.7285C218.93 82.8594 219.105 82.9356 219.29 82.9416H236.823C237.007 82.9279 237.18 82.8449 237.305 82.7093C237.431 82.5738 237.501 82.3956 237.501 82.2106C237.501 82.0256 237.431 81.8475 237.305 81.7119C237.18 81.5763 237.007 81.4933 236.823 81.4796H219.29C219.194 81.4827 219.1 81.5048 219.012 81.5446C218.925 81.5845 218.846 81.6412 218.78 81.7116C218.715 81.782 218.664 81.8647 218.63 81.9548C218.597 82.045 218.582 82.1409 218.586 82.2369Z" fill="black"/>
<path d="M214.23 78.0249H231.76C231.932 77.9936 232.086 77.9033 232.198 77.7697C232.309 77.6362 232.37 77.4678 232.37 77.2939C232.37 77.12 232.309 76.9516 232.198 76.8181C232.086 76.6845 231.932 76.5942 231.76 76.5629H214.23C214.036 76.5629 213.85 76.6399 213.713 76.777C213.576 76.9141 213.499 77.1 213.499 77.2939C213.499 77.4878 213.576 77.6737 213.713 77.8108C213.85 77.9479 214.036 78.0249 214.23 78.0249Z" fill="black"/>
<path d="M373.838 179.328C373.837 176.738 373.326 174.173 372.333 171.781C371.34 169.388 369.886 167.215 368.053 165.386C366.22 163.556 364.044 162.105 361.65 161.117C359.256 160.129 356.69 159.622 354.1 159.626H312.79C309.619 159.669 306.505 160.477 303.714 161.981C303.714 161.981 303.714 104.917 303.645 104.206C303.32 100.949 301.795 97.929 299.367 95.733C296.94 93.537 293.782 92.3218 290.509 92.3235H252.805C251.93 86.5096 248.997 81.2031 244.539 77.3688C240.082 73.5344 234.397 71.427 228.518 71.4295C228.315 71.389 229.53 71.4295 187.953 71.4295C182.584 71.2455 177.302 72.8238 172.914 75.9234C168.526 79.023 165.274 83.4736 163.653 88.5954C162.67 92.025 162.277 95.5966 162.491 99.1578V154.157H126.356C126.478 152.127 126.38 150.091 126.065 148.082C125.319 143.902 123.123 140.12 119.864 137.4C116.604 134.679 112.49 133.195 108.245 133.208C78.1857 133.117 69.9865 133.137 67.7043 133.18C56.8402 133.382 49.9592 140.541 48.9569 149.208C48.7787 151.089 48.8941 147.138 48.8333 194.835C48.8064 199.264 50.4013 203.549 53.3171 206.882C56.233 210.215 60.268 212.366 64.6607 212.928C66.9105 213.216 72.1634 212.483 77.477 216.841C79.2165 218.274 80.6488 220.043 81.6881 222.043C82.7275 224.042 83.3525 226.231 83.5256 228.478C83.5925 229.442 83.3231 227.085 83.5682 259.613C83.5703 259.806 83.648 259.991 83.7846 260.127C83.9212 260.264 84.106 260.342 84.2992 260.344H125.609C125.802 260.341 125.986 260.263 126.123 260.126C126.259 259.99 126.337 259.806 126.34 259.613C126.34 259.613 126.34 230.048 126.34 229.44C126.272 224.686 124.334 220.15 120.948 216.813C117.561 213.476 112.997 211.607 108.243 211.608C106.059 211.609 103.896 211.18 101.879 210.345C99.8607 209.51 98.0271 208.285 96.4823 206.742C94.9376 205.198 93.712 203.365 92.8756 201.348C92.0391 199.331 91.6082 197.169 91.6074 194.985V193.395C93.7033 194.47 96.018 195.048 98.3729 195.086C98.4681 195.11 137.071 194.983 137.17 194.983C137.17 231.589 137.05 228.041 137.399 230.961C137.964 234 139.568 236.748 141.937 238.734C144.306 240.721 147.292 241.821 150.383 241.847C150.586 241.912 149.352 241.88 179.174 241.88C184.717 251.13 196.545 258.08 210.337 259.113C210.337 259.113 210.307 267.128 210.337 270.372C210.367 273.856 211.724 277.198 214.132 279.716C216.54 282.235 219.818 283.741 223.297 283.927C223.5 283.927 265.188 283.99 265.441 283.891C267.256 283.868 269.047 283.479 270.708 282.747C272.369 282.015 273.865 280.956 275.107 279.632C276.348 278.309 277.31 276.748 277.934 275.044C278.559 273.34 278.832 271.528 278.74 269.715V229.26C278.912 229.26 319.219 229.26 319.381 229.203C323.748 229.098 327.913 227.344 331.039 224.295V306.805C331.041 306.999 331.119 307.184 331.256 307.321C331.392 307.458 331.577 307.536 331.77 307.538H373.08C373.274 307.535 373.458 307.457 373.595 307.32C373.731 307.183 373.809 306.999 373.811 306.805C373.811 306.805 373.842 181.118 373.838 179.328ZM236.808 74.4326C240.577 75.8981 243.9 78.3191 246.45 81.4577C249.001 84.5962 250.69 88.3443 251.354 92.3336H249.191C246.198 92.3371 243.296 93.3553 240.957 95.222C238.618 97.0886 236.981 99.6933 236.314 102.61C235.844 104.775 235.984 103.807 235.984 134.237H222.327C222.133 134.237 221.947 134.314 221.81 134.451C221.673 134.588 221.596 134.774 221.596 134.968C221.596 135.162 221.673 135.348 221.81 135.485C221.947 135.622 222.133 135.699 222.327 135.699H235.984V139.686H222.327C222.14 139.696 221.963 139.777 221.834 139.914C221.705 140.05 221.633 140.23 221.633 140.418C221.633 140.606 221.705 140.787 221.834 140.923C221.963 141.059 222.14 141.14 222.327 141.15H235.984V145.755H222.327C222.14 145.765 221.963 145.846 221.834 145.983C221.705 146.119 221.633 146.299 221.633 146.487C221.633 146.675 221.705 146.856 221.834 146.992C221.963 147.128 222.14 147.209 222.327 147.219H235.984V151.656H222.327C222.133 151.656 221.947 151.733 221.81 151.87C221.673 152.007 221.596 152.193 221.596 152.387C221.596 152.581 221.673 152.767 221.81 152.904C221.947 153.041 222.133 153.118 222.327 153.118H235.984V172.123H222.327C222.14 172.133 221.963 172.214 221.834 172.35C221.705 172.486 221.633 172.667 221.633 172.855C221.633 173.042 221.705 173.223 221.834 173.359C221.963 173.495 222.14 173.577 222.327 173.587H235.984V177.572H222.327C222.14 177.582 221.963 177.663 221.834 177.799C221.705 177.936 221.633 178.116 221.633 178.304C221.633 178.492 221.705 178.672 221.834 178.809C221.963 178.945 222.14 179.026 222.327 179.036H235.984V183.643H222.327C222.133 183.643 221.947 183.72 221.81 183.857C221.673 183.994 221.596 184.18 221.596 184.374C221.596 184.568 221.673 184.754 221.81 184.891C221.947 185.028 222.133 185.105 222.327 185.105H235.984V202.945C228.537 199.1 220.193 197.328 211.826 197.816C211.826 87.186 211.947 95.5716 211.544 92.3943C210.868 88.0041 209.022 83.8768 206.201 80.4456C203.38 77.0144 199.687 74.4058 195.51 72.8936C229.374 72.8835 231.675 72.4643 236.808 74.4225V74.4326ZM205.445 93.1355C205.785 90.4884 206.589 87.922 207.82 85.5539C209.539 89.02 210.41 92.845 210.362 96.7137V122.447C209.774 121.435 206.374 115.603 205.263 113.695C205.263 94.5672 205.212 95.3994 205.445 93.1254V93.1355ZM210.362 125.347V145.01C186.908 145.01 176.949 145.024 176.139 144.988C176.718 143.995 198.857 106.019 198.985 105.82L210.362 125.347ZM205.263 146.474H210.362C210.362 193.114 210.293 197.571 210.404 197.895C208.679 198.034 206.963 198.264 205.263 198.583V146.474ZM108.265 213.062C112.492 213.071 116.557 214.685 119.639 217.577C122.722 220.469 124.591 224.423 124.87 228.64C124.965 230.26 124.856 258.659 124.87 258.868H85.0464V230.512C85.1495 228.091 84.7667 225.675 83.9205 223.405C83.0744 221.136 81.7821 219.058 80.1199 217.296C78.4577 215.534 76.4593 214.123 74.2427 213.146C72.0261 212.169 69.6363 211.646 67.2143 211.608C65.0045 211.644 62.8097 211.24 60.758 210.418C58.7064 209.597 56.8392 208.374 55.2654 206.822C53.6917 205.271 52.4431 203.421 51.5925 201.381C50.7419 199.341 50.3064 197.152 50.3116 194.942C50.3116 193.687 50.2124 153.118 50.3298 150.506C50.5302 146.313 52.3091 142.351 55.3095 139.416C58.3098 136.48 62.3095 134.788 66.5057 134.68C70.7018 134.571 74.7837 136.054 77.932 138.83C81.0803 141.606 83.0619 145.47 83.4791 149.647H59.3816C59.1887 149.65 59.0045 149.728 58.8681 149.865C58.7317 150.001 58.6537 150.185 58.6505 150.378V177.918C58.6537 178.111 58.7317 178.295 58.8681 178.432C59.0045 178.568 59.1887 178.646 59.3816 178.649H83.5823C83.5349 180.019 83.6081 181.391 83.801 182.748C84.1394 184.727 84.8788 186.616 85.9736 188.299C87.0684 189.982 88.4956 191.423 90.1676 192.535V194.707C90.1317 197.106 90.573 199.488 91.4661 201.714C92.3592 203.94 93.6861 205.966 95.3697 207.675C97.0533 209.384 99.0598 210.74 101.273 211.666C103.485 212.592 105.86 213.069 108.259 213.068L108.265 213.062ZM83.5601 151.109C83.5904 152.561 83.5803 148.535 83.5803 177.179H60.1085V151.115L83.5601 151.109ZM98.5349 193.634C96.7404 193.64 94.963 193.286 93.3072 192.594C91.6515 191.902 90.1509 190.886 88.8939 189.605C87.637 188.325 86.649 186.805 85.9882 185.137C85.3275 183.468 85.0072 181.685 85.0464 179.891C85.0464 179.891 85.0586 151.249 85.0343 150.615C84.9091 147.183 83.8057 143.858 81.854 141.031C79.9024 138.205 77.1837 135.995 74.0183 134.662H108.259C111.928 134.652 115.497 135.859 118.406 138.094C121.316 140.33 123.402 143.467 124.337 147.015C124.885 149.36 125.069 151.776 124.884 154.177C122.405 154.256 119.996 155.02 117.925 156.385C115.855 157.75 114.203 159.663 113.153 161.911H96.7914C96.5975 161.911 96.4116 161.988 96.2745 162.125C96.1374 162.262 96.0604 162.448 96.0604 162.642C96.0604 162.835 96.1374 163.021 96.2745 163.159C96.4116 163.296 96.5975 163.373 96.7914 163.373H112.586C112.159 164.659 111.935 166.004 111.922 167.36H96.7914C96.6039 167.37 96.4274 167.451 96.2981 167.587C96.1689 167.724 96.0969 167.904 96.0969 168.092C96.0969 168.28 96.1689 168.46 96.2981 168.596C96.4274 168.733 96.6039 168.814 96.7914 168.824H111.9V180.21C111.902 183.76 110.496 187.166 107.991 189.682C105.487 192.198 102.087 193.618 98.537 193.632L98.5349 193.634ZM137.192 167.805V193.565H104.916C107.514 192.315 109.695 190.34 111.194 187.877C112.694 185.414 113.448 182.57 113.366 179.688C113.251 168.054 113.137 166.1 114.065 163.488C115.024 160.826 116.898 158.592 119.353 157.186C121.809 155.779 124.684 155.292 127.465 155.811C130.247 156.33 132.753 157.822 134.535 160.019C136.317 162.217 137.26 164.977 137.194 167.805H137.192ZM150.656 240.412C149.052 240.422 147.462 240.108 145.982 239.488C144.502 238.869 143.162 237.958 142.042 236.809C140.922 235.66 140.046 234.296 139.466 232.801C138.885 231.305 138.613 229.707 138.664 228.104V168.445C138.827 165.828 138.222 163.22 136.923 160.942C135.625 158.664 133.69 156.814 131.356 155.619L162.493 155.607V163.032H148.014C147.82 163.032 147.634 163.109 147.497 163.247C147.36 163.384 147.283 163.57 147.283 163.763C147.283 163.957 147.36 164.143 147.497 164.28C147.634 164.417 147.82 164.494 148.014 164.494H162.493V169.101H149.026C148.832 169.101 148.646 169.178 148.509 169.315C148.372 169.453 148.295 169.638 148.295 169.832C148.295 170.026 148.372 170.212 148.509 170.349C148.646 170.486 148.832 170.563 149.026 170.563H162.493V179.101H149.026C148.839 179.111 148.662 179.192 148.533 179.328C148.404 179.464 148.332 179.645 148.332 179.833C148.332 180.021 148.404 180.201 148.533 180.337C148.662 180.474 148.839 180.555 149.026 180.565H162.493V184.55H149.026C148.839 184.56 148.662 184.641 148.533 184.778C148.404 184.914 148.332 185.094 148.332 185.282C148.332 185.47 148.404 185.65 148.533 185.787C148.662 185.923 148.839 186.004 149.026 186.014H162.493V221.857H149.026C148.832 221.857 148.646 221.934 148.509 222.071C148.372 222.208 148.295 222.394 148.295 222.588C148.295 222.782 148.372 222.967 148.509 223.105C148.646 223.242 148.832 223.319 149.026 223.319H162.493V227.755H149.026C148.839 227.765 148.662 227.847 148.533 227.983C148.404 228.119 148.332 228.3 148.332 228.488C148.332 228.675 148.404 228.856 148.533 228.992C148.662 229.128 148.839 229.21 149.026 229.22H162.444C162.287 232.24 160.976 235.085 158.783 237.167C156.59 239.25 153.681 240.411 150.656 240.412ZM156.575 240.412C158.88 239.26 160.803 237.467 162.113 235.249C163.422 233.03 164.063 230.48 163.957 227.905C163.957 227.905 163.957 98.1514 163.957 96.1345C163.88 73.1204 194.51 63.7669 206.982 84.0311C204.904 87.7635 203.811 91.9638 203.807 96.2358V111.18C203.238 110.198 201.456 107.144 199.611 103.975C199.545 103.867 199.452 103.777 199.341 103.715C199.231 103.652 199.106 103.62 198.979 103.62C198.852 103.62 198.727 103.652 198.616 103.715C198.506 103.777 198.413 103.867 198.347 103.975L174.221 145.378C174.159 145.49 174.126 145.616 174.126 145.744C174.127 145.872 174.161 145.998 174.224 146.109C174.288 146.22 174.379 146.312 174.49 146.378C174.6 146.443 174.725 146.478 174.853 146.48H203.811V198.867C196.49 200.369 189.718 203.843 184.227 208.913C179.855 212.743 176.899 217.933 175.834 223.647C174.769 229.361 175.657 235.267 178.354 240.416L156.575 240.412ZM176.88 230.809C175.473 217.205 186.355 205.973 198.821 201.795C204.873 199.663 211.301 198.81 217.699 199.292C224.097 199.773 230.326 201.578 235.99 204.592V252.402C212.028 265.649 179.209 253.311 176.874 230.813L176.88 230.809ZM213.207 276.007C211.255 272.318 211.826 267.502 211.826 263.436V259.2C220.193 259.702 228.541 257.932 235.984 254.076V262.176H222.327C222.14 262.186 221.963 262.268 221.834 262.404C221.705 262.54 221.633 262.721 221.633 262.908C221.633 263.096 221.705 263.277 221.834 263.413C221.963 263.549 222.14 263.631 222.327 263.64H235.984V268.077H222.327C222.14 268.087 221.963 268.169 221.834 268.305C221.705 268.441 221.633 268.622 221.633 268.809C221.633 268.997 221.705 269.178 221.834 269.314C221.963 269.45 222.14 269.531 222.327 269.541H235.984V270.116C236.008 271.854 235.666 273.578 234.979 275.174C234.292 276.771 233.276 278.204 231.997 279.381C230.627 280.611 228.994 281.512 227.223 282.015C225.452 282.519 223.589 282.611 221.777 282.286C219.965 281.961 218.251 281.226 216.766 280.138C215.281 279.05 214.063 277.637 213.207 276.007ZM277.083 272.684C276.522 275.531 274.96 278.083 272.681 279.878C270.402 281.674 267.555 282.594 264.656 282.473H229.949C232.336 281.284 234.32 279.418 235.652 277.109C236.985 274.799 237.607 272.148 237.442 269.487V105.881C237.411 104.261 237.708 102.652 238.315 101.15C238.921 99.6476 239.825 98.2834 240.971 97.1389C242.423 95.7245 244.215 94.7091 246.174 94.1912C248.133 93.6732 250.193 93.6703 252.154 94.1827C254.114 94.695 255.909 95.7053 257.365 97.1156C258.82 98.5258 259.886 100.288 260.46 102.232C261.14 104.662 261.452 95.4096 260.93 212.076C260.875 216.506 262.557 220.781 265.615 223.986C268.674 227.19 272.866 229.07 277.294 229.222V264.376C277.485 267.146 277.415 269.929 277.083 272.686V272.684ZM262.398 212.313V105.551C262.393 103.114 261.716 100.726 260.441 98.6497C259.166 96.5733 257.342 94.8894 255.171 93.7835H290.505C292.073 93.7887 293.625 94.1069 295.069 94.7194C296.513 95.332 297.82 96.2266 298.914 97.3508C300.008 98.475 300.866 99.8062 301.439 101.266C302.012 102.727 302.288 104.286 302.25 105.855V162.848C298.711 165.136 295.999 168.499 294.514 172.443C293.452 175.909 293.04 179.541 293.299 183.157H286.961C283.236 183.15 279.637 184.502 276.837 186.959C274.037 189.415 272.229 192.808 271.75 196.502C271.272 200.196 272.157 203.938 274.239 207.026C276.321 210.115 279.457 212.338 283.061 213.281C286.415 213.853 289.825 214.019 293.218 213.773C292.849 217.728 290.97 221.39 287.97 223.995C284.971 226.6 281.083 227.949 277.115 227.761C273.147 227.574 269.403 225.864 266.663 222.987C263.924 220.11 262.398 216.288 262.404 212.315L262.398 212.313ZM331.062 222.094C329.646 223.818 327.875 225.217 325.87 226.195C323.865 227.174 321.673 227.709 319.442 227.764C318.383 227.782 325.912 227.764 284.641 227.764C287.414 226.542 289.808 224.599 291.575 222.137C293.341 219.674 294.413 216.783 294.68 213.765H331.062V222.094ZM331.062 212.307H287.083C283.584 212.351 280.198 211.068 277.607 208.717C275.015 206.367 273.409 203.122 273.112 199.635C272.816 196.149 273.85 192.68 276.007 189.924C278.164 187.169 281.284 185.333 284.74 184.785C286.562 184.546 283.108 184.619 331.062 184.619V212.307ZM331.062 183.147H294.763C294.763 180.312 294.703 179.299 294.871 177.195C295.384 172.677 297.575 168.516 301.009 165.535C304.443 162.554 308.871 160.971 313.417 161.098C317.963 161.226 322.295 163.054 325.557 166.222C328.819 169.391 330.773 173.668 331.033 178.208C331.12 179.852 331.062 181.513 331.062 183.153V183.147ZM372.357 306.064H332.524V179.299C332.505 175.397 331.336 171.587 329.164 168.345C326.991 165.104 323.911 162.575 320.309 161.074H354.1C358.793 161.042 363.315 162.829 366.719 166.059C370.123 169.289 372.144 173.712 372.357 178.4C372.412 179.729 372.256 303.786 372.357 306.074V306.064Z" fill="black"/>
<path d="M361.46 277.081H343.929C343.735 277.081 343.549 277.158 343.412 277.295C343.275 277.432 343.198 277.618 343.198 277.812C343.198 278.006 343.275 278.192 343.412 278.329C343.549 278.466 343.735 278.543 343.929 278.543H361.46C361.654 278.543 361.84 278.466 361.977 278.329C362.114 278.192 362.191 278.006 362.191 277.812C362.191 277.618 362.114 277.432 361.977 277.295C361.84 277.158 361.654 277.081 361.46 277.081Z" fill="black"/>
<path d="M361.459 271.18H343.929C343.741 271.189 343.565 271.271 343.436 271.407C343.306 271.543 343.234 271.724 343.234 271.912C343.234 272.099 343.306 272.28 343.436 272.416C343.565 272.552 343.741 272.634 343.929 272.644H361.459C361.647 272.634 361.823 272.552 361.953 272.416C362.082 272.28 362.154 272.099 362.154 271.912C362.154 271.724 362.082 271.543 361.953 271.407C361.823 271.271 361.647 271.189 361.459 271.18Z" fill="black"/>
<path d="M361.459 192.34H343.929C343.741 192.35 343.565 192.431 343.436 192.568C343.306 192.704 343.234 192.884 343.234 193.072C343.234 193.26 343.306 193.441 343.436 193.577C343.565 193.713 343.741 193.794 343.929 193.804H361.459C361.647 193.794 361.823 193.713 361.953 193.577C362.082 193.441 362.154 193.26 362.154 193.072C362.154 192.884 362.082 192.704 361.953 192.568C361.823 192.431 361.647 192.35 361.459 192.34Z" fill="black"/>
<path d="M361.459 186.891H343.929C343.741 186.901 343.565 186.983 343.436 187.119C343.306 187.255 343.234 187.436 343.234 187.623C343.234 187.811 343.306 187.992 343.436 188.128C343.565 188.264 343.741 188.345 343.929 188.355H361.459C361.647 188.345 361.823 188.264 361.953 188.128C362.082 187.992 362.154 187.811 362.154 187.623C362.154 187.436 362.082 187.255 361.953 187.119C361.823 186.983 361.647 186.901 361.459 186.891Z" fill="black"/>
<path d="M361.46 180.992H343.929C343.735 180.992 343.549 181.069 343.412 181.206C343.275 181.343 343.198 181.529 343.198 181.723C343.198 181.917 343.275 182.103 343.412 182.24C343.549 182.377 343.735 182.454 343.929 182.454H361.46C361.654 182.454 361.84 182.377 361.977 182.24C362.114 182.103 362.191 181.917 362.191 181.723C362.191 181.529 362.114 181.343 361.977 181.206C361.84 181.069 361.654 180.992 361.46 180.992Z" fill="black"/>
<path d="M361.46 174.923H343.929C343.735 174.923 343.549 175 343.412 175.137C343.275 175.274 343.198 175.46 343.198 175.654C343.198 175.848 343.275 176.034 343.412 176.171C343.549 176.308 343.735 176.385 343.929 176.385H361.46C361.654 176.385 361.84 176.308 361.977 176.171C362.114 176.034 362.191 175.848 362.191 175.654C362.191 175.46 362.114 175.274 361.977 175.137C361.84 175 361.654 174.923 361.46 174.923Z" fill="black"/>
<path d="M114.671 248.105H97.1389C96.9514 248.114 96.7748 248.196 96.6456 248.332C96.5164 248.468 96.4443 248.649 96.4443 248.837C96.4443 249.024 96.5164 249.205 96.6456 249.341C96.7748 249.477 96.9514 249.559 97.1389 249.569H114.671C114.859 249.559 115.035 249.477 115.165 249.341C115.294 249.205 115.366 249.024 115.366 248.837C115.366 248.649 115.294 248.468 115.165 248.332C115.035 248.196 114.859 248.114 114.671 248.105Z" fill="black"/>
<path d="M96.431 243.404C96.4376 243.59 96.5141 243.766 96.6453 243.897C96.7764 244.028 96.9524 244.105 97.1377 244.111H114.67C114.858 244.101 115.034 244.02 115.163 243.884C115.293 243.747 115.365 243.567 115.365 243.379C115.365 243.191 115.293 243.011 115.163 242.875C115.034 242.738 114.858 242.657 114.67 242.647H97.1377C96.9438 242.654 96.7607 242.738 96.6283 242.88C96.4959 243.022 96.425 243.21 96.431 243.404Z" fill="black"/>
<path d="M93.397 221.893C93.403 222.079 93.4791 222.255 93.61 222.386C93.7408 222.517 93.9165 222.594 94.1017 222.6H111.634C111.828 222.6 112.014 222.523 112.151 222.386C112.288 222.249 112.365 222.063 112.365 221.869C112.365 221.675 112.288 221.489 112.151 221.352C112.014 221.215 111.828 221.138 111.634 221.138H94.1017C94.0057 221.141 93.9114 221.163 93.824 221.203C93.7366 221.243 93.6579 221.299 93.5924 221.369C93.527 221.44 93.476 221.522 93.4425 221.612C93.4089 221.702 93.3935 221.798 93.397 221.893Z" fill="black"/>
<path d="M88.3354 216.976C88.3419 217.162 88.4185 217.338 88.5496 217.469C88.6808 217.6 88.8568 217.676 89.0421 217.683H106.575C106.762 217.673 106.939 217.592 107.068 217.455C107.197 217.319 107.269 217.139 107.269 216.951C107.269 216.763 107.197 216.583 107.068 216.446C106.939 216.31 106.762 216.229 106.575 216.219H89.0421C88.848 216.226 88.6646 216.309 88.5321 216.451C88.3996 216.593 88.3288 216.782 88.3354 216.976Z" fill="black"/>
<path d="M361.459 235.358H343.929C343.741 235.367 343.565 235.449 343.436 235.585C343.306 235.721 343.234 235.902 343.234 236.09C343.234 236.277 343.306 236.458 343.436 236.594C343.565 236.73 343.741 236.812 343.929 236.822H361.459C361.647 236.812 361.823 236.73 361.953 236.594C362.082 236.458 362.154 236.277 362.154 236.09C362.154 235.902 362.082 235.721 361.953 235.585C361.823 235.449 361.647 235.367 361.459 235.358Z" fill="black"/>
<path d="M361.459 229.289H343.929C343.741 229.299 343.565 229.38 343.436 229.516C343.306 229.652 343.234 229.833 343.234 230.021C343.234 230.209 343.306 230.389 343.436 230.525C343.565 230.662 343.741 230.743 343.929 230.753H361.459C361.647 230.743 361.823 230.662 361.953 230.525C362.082 230.389 362.154 230.209 362.154 230.021C362.154 229.833 362.082 229.652 361.953 229.516C361.823 229.38 361.647 229.299 361.459 229.289Z" fill="black"/>
<path d="M361.459 217.938H343.929C343.741 217.948 343.565 218.029 343.436 218.166C343.306 218.302 343.234 218.482 343.234 218.67C343.234 218.858 343.306 219.038 343.436 219.175C343.565 219.311 343.741 219.392 343.929 219.402H361.459C361.647 219.392 361.823 219.311 361.953 219.175C362.082 219.038 362.154 218.858 362.154 218.67C362.154 218.482 362.082 218.302 361.953 218.166C361.823 218.029 361.647 217.948 361.459 217.938Z" fill="black"/>
<path d="M361.46 211.872H343.929C343.735 211.872 343.549 211.949 343.412 212.086C343.275 212.223 343.198 212.409 343.198 212.603C343.198 212.796 343.275 212.982 343.412 213.119C343.549 213.257 343.735 213.334 343.929 213.334H361.46C361.654 213.334 361.84 213.257 361.977 213.119C362.114 212.982 362.191 212.796 362.191 212.603C362.191 212.409 362.114 212.223 361.977 212.086C361.84 211.949 361.654 211.872 361.46 211.872Z" fill="black"/>
<path d="M359.132 168.885C359.126 168.7 359.05 168.524 358.919 168.392C358.788 168.261 358.613 168.185 358.428 168.178H340.895C340.701 168.178 340.515 168.255 340.378 168.392C340.241 168.529 340.164 168.715 340.164 168.909C340.164 169.103 340.241 169.289 340.378 169.426C340.515 169.563 340.701 169.64 340.895 169.64H358.423C358.52 169.638 358.615 169.616 358.702 169.576C358.79 169.537 358.869 169.48 358.935 169.41C359.001 169.34 359.053 169.257 359.086 169.167C359.12 169.077 359.136 168.981 359.132 168.885Z" fill="black"/>
<path d="M354.07 163.822C354.064 163.637 353.988 163.46 353.857 163.329C353.725 163.198 353.549 163.121 353.364 163.115H335.833C335.646 163.125 335.469 163.207 335.34 163.343C335.211 163.479 335.139 163.66 335.139 163.847C335.139 164.035 335.211 164.216 335.34 164.352C335.469 164.488 335.646 164.57 335.833 164.579H353.36C353.456 164.576 353.551 164.555 353.639 164.515C353.727 164.475 353.806 164.419 353.872 164.348C353.938 164.278 353.99 164.195 354.024 164.105C354.058 164.015 354.074 163.918 354.07 163.822Z" fill="black"/>
<path d="M274.477 179.123H292.003C292.191 179.113 292.367 179.032 292.497 178.896C292.626 178.759 292.698 178.579 292.698 178.391C292.698 178.203 292.626 178.023 292.497 177.886C292.367 177.75 292.191 177.669 292.003 177.659H274.471C274.283 177.669 274.107 177.75 273.978 177.886C273.848 178.023 273.776 178.203 273.776 178.391C273.776 178.579 273.848 178.759 273.978 178.896C274.107 179.032 274.283 179.113 274.471 179.123H274.477Z" fill="black"/>
<path d="M274.477 173.054H292.003C292.191 173.044 292.367 172.963 292.497 172.827C292.626 172.69 292.698 172.51 292.698 172.322C292.698 172.134 292.626 171.954 292.497 171.818C292.367 171.681 292.191 171.6 292.003 171.59H274.471C274.283 171.6 274.107 171.681 273.978 171.818C273.848 171.954 273.776 172.134 273.776 172.322C273.776 172.51 273.848 172.69 273.978 172.827C274.107 172.963 274.283 173.044 274.471 173.054H274.477Z" fill="black"/>
<path d="M274.477 167.604H292.003C292.191 167.595 292.367 167.513 292.497 167.377C292.626 167.241 292.698 167.06 292.698 166.872C292.698 166.685 292.626 166.504 292.497 166.368C292.367 166.232 292.191 166.15 292.003 166.14H274.471C274.283 166.15 274.107 166.232 273.978 166.368C273.848 166.504 273.776 166.685 273.776 166.872C273.776 167.06 273.848 167.241 273.978 167.377C274.107 167.513 274.283 167.595 274.471 167.604H274.477Z" fill="black"/>
<path d="M274.475 152.593H292.002C292.196 152.593 292.382 152.516 292.519 152.379C292.656 152.242 292.733 152.056 292.733 151.862C292.733 151.669 292.656 151.483 292.519 151.346C292.382 151.208 292.196 151.131 292.002 151.131H274.469C274.275 151.131 274.089 151.208 273.952 151.346C273.815 151.483 273.738 151.669 273.738 151.862C273.738 152.056 273.815 152.242 273.952 152.379C274.089 152.516 274.275 152.593 274.469 152.593H274.475Z" fill="black"/>
<path d="M274.475 146.525H292.002C292.196 146.525 292.382 146.448 292.519 146.311C292.656 146.173 292.733 145.987 292.733 145.794C292.733 145.6 292.656 145.414 292.519 145.277C292.382 145.14 292.196 145.063 292.002 145.063H274.469C274.275 145.063 274.089 145.14 273.952 145.277C273.815 145.414 273.738 145.6 273.738 145.794C273.738 145.987 273.815 146.173 273.952 146.311C274.089 146.448 274.275 146.525 274.469 146.525H274.475Z" fill="black"/>
<path d="M274.477 124.621H292.003C292.191 124.611 292.367 124.529 292.497 124.393C292.626 124.257 292.698 124.076 292.698 123.889C292.698 123.701 292.626 123.52 292.497 123.384C292.367 123.248 292.191 123.166 292.003 123.156H274.471C274.283 123.166 274.107 123.248 273.978 123.384C273.848 123.52 273.776 123.701 273.776 123.889C273.776 124.076 273.848 124.257 273.978 124.393C274.107 124.529 274.283 124.611 274.471 124.621H274.477Z" fill="black"/>
<path d="M274.477 118.551H292.003C292.191 118.542 292.367 118.46 292.497 118.324C292.626 118.188 292.698 118.007 292.698 117.819C292.698 117.632 292.626 117.451 292.497 117.315C292.367 117.179 292.191 117.097 292.003 117.087H274.471C274.283 117.097 274.107 117.179 273.978 117.315C273.848 117.451 273.776 117.632 273.776 117.819C273.776 118.007 273.848 118.188 273.978 118.324C274.107 118.46 274.283 118.542 274.471 118.551H274.477Z" fill="black"/>
<path d="M84.3273 268.01H124.955C125.142 268 125.319 267.919 125.448 267.783C125.577 267.647 125.649 267.466 125.649 267.278C125.649 267.09 125.577 266.91 125.448 266.774C125.319 266.637 125.142 266.556 124.955 266.546H84.3273C84.1399 266.556 83.9633 266.637 83.8341 266.774C83.7048 266.91 83.6328 267.09 83.6328 267.278C83.6328 267.466 83.7048 267.647 83.8341 267.783C83.9633 267.919 84.1399 268 84.3273 268.01Z" fill="black"/>
<path d="M84.3273 272.98H124.955C125.142 272.97 125.319 272.889 125.448 272.753C125.577 272.616 125.649 272.436 125.649 272.248C125.649 272.06 125.577 271.88 125.448 271.743C125.319 271.607 125.142 271.526 124.955 271.516H84.3273C84.1399 271.526 83.9633 271.607 83.8341 271.743C83.7048 271.88 83.6328 272.06 83.6328 272.248C83.6328 272.436 83.7048 272.616 83.8341 272.753C83.9633 272.889 84.1399 272.97 84.3273 272.98Z" fill="black"/>
<path d="M373.003 332.116H332.384C332.197 332.126 332.02 332.207 331.891 332.344C331.762 332.48 331.689 332.66 331.689 332.848C331.689 333.036 331.762 333.217 331.891 333.353C332.02 333.489 332.197 333.57 332.384 333.58H373.003C373.191 333.57 373.368 333.489 373.497 333.353C373.626 333.217 373.698 333.036 373.698 332.848C373.698 332.66 373.626 332.48 373.497 332.344C373.368 332.207 373.191 332.126 373.003 332.116Z" fill="black"/>
<path d="M373.003 326.632H332.384C332.197 326.642 332.02 326.724 331.891 326.86C331.762 326.996 331.689 327.177 331.689 327.364C331.689 327.552 331.762 327.733 331.891 327.869C332.02 328.005 332.197 328.087 332.384 328.096H373.003C373.191 328.087 373.368 328.005 373.497 327.869C373.626 327.733 373.698 327.552 373.698 327.364C373.698 327.177 373.626 326.996 373.497 326.86C373.368 326.724 373.191 326.642 373.003 326.632Z" fill="black"/>
<path d="M124.954 277.38H84.3265C83.638 277.38 83.2836 278.419 83.9579 278.743C86.2826 279.861 103.442 288.178 104.252 288.502C104.937 288.777 105.872 288.097 106.494 287.797C115.088 283.662 120.669 280.851 125.234 278.788C125.388 278.722 125.516 278.604 125.594 278.456C125.673 278.307 125.698 278.136 125.665 277.97C125.632 277.805 125.544 277.657 125.414 277.549C125.285 277.442 125.122 277.382 124.954 277.38ZM104.641 287.07L87.5321 278.842H121.755L104.641 287.07Z" fill="black"/>
<path d="M373.425 321.031C373.083 320.851 353.782 311.532 353.084 311.25C352.385 310.969 351.454 311.655 350.842 311.955C350.567 312.087 341.73 316.361 332.01 321.009C331.335 321.333 331.69 322.372 332.378 322.372H373.002C373.157 322.378 373.31 322.328 373.433 322.233C373.556 322.137 373.641 322.001 373.674 321.849C373.749 321.708 373.765 321.542 373.718 321.389C373.671 321.236 373.566 321.107 373.425 321.031ZM335.588 320.91L352.695 312.684L369.804 320.91H335.588Z" fill="black"/>
<path d="M369.411 145.008C369.596 145.001 369.771 144.924 369.902 144.793C370.033 144.662 370.109 144.486 370.115 144.301V125.59C370.115 125.396 370.038 125.21 369.901 125.073C369.764 124.936 369.578 124.859 369.384 124.859C369.19 124.859 369.005 124.936 368.867 125.073C368.73 125.21 368.653 125.396 368.653 125.59V144.301C368.656 144.397 368.679 144.492 368.718 144.58C368.758 144.667 368.815 144.746 368.885 144.812C368.956 144.878 369.038 144.929 369.128 144.962C369.219 144.996 369.315 145.011 369.411 145.008Z" fill="black"/>
<path d="M388.579 132.657C388.444 132.53 388.265 132.459 388.079 132.459C387.893 132.459 387.714 132.53 387.579 132.657C382.608 137.461 377.72 142.35 372.914 147.324C372.79 147.464 372.724 147.646 372.73 147.832C372.736 148.019 372.812 148.197 372.944 148.329C373.076 148.461 373.254 148.537 373.44 148.543C373.627 148.549 373.809 148.483 373.948 148.359L388.613 133.692C388.679 133.622 388.731 133.539 388.765 133.449C388.798 133.359 388.814 133.264 388.811 133.167C388.808 133.071 388.786 132.977 388.746 132.889C388.706 132.802 388.649 132.723 388.579 132.657Z" fill="black"/>
<path d="M394.165 151.156H377.982C377.794 151.166 377.618 151.247 377.488 151.384C377.359 151.52 377.287 151.7 377.287 151.888C377.287 152.076 377.359 152.256 377.488 152.393C377.618 152.529 377.794 152.61 377.982 152.62H394.165C394.353 152.61 394.529 152.529 394.659 152.393C394.788 152.256 394.86 152.076 394.86 151.888C394.86 151.7 394.788 151.52 394.659 151.384C394.529 151.247 394.353 151.166 394.165 151.156Z" fill="black"/>
<path d="M33.7871 181.193C33.781 181.008 33.7048 180.832 33.574 180.701C33.4431 180.57 33.2674 180.494 33.0824 180.488H10.8297C10.6358 180.488 10.4498 180.565 10.3127 180.702C10.1757 180.839 10.0986 181.025 10.0986 181.219C10.0986 181.413 10.1757 181.599 10.3127 181.736C10.4498 181.873 10.6358 181.95 10.8297 181.95H33.0824C33.1784 181.947 33.2728 181.925 33.3602 181.885C33.4476 181.845 33.5263 181.788 33.5917 181.718C33.6572 181.647 33.7081 181.565 33.7416 181.475C33.7752 181.385 33.7906 181.289 33.7871 181.193Z" fill="black"/>
<path d="M34.0801 176.679C34.2192 176.807 34.4024 176.877 34.5915 176.873C34.7806 176.869 34.9609 176.793 35.0947 176.659C35.2286 176.525 35.3056 176.345 35.3098 176.156C35.3139 175.967 35.2448 175.784 35.1169 175.644C30.9778 171.355 26.7638 167.145 22.4748 163.012C22.335 162.889 22.1533 162.823 21.9666 162.829C21.78 162.834 21.6026 162.911 21.4706 163.043C21.3385 163.175 21.2619 163.352 21.2562 163.539C21.2505 163.726 21.3163 163.907 21.44 164.047C25.5805 168.325 29.7938 172.536 34.0801 176.679Z" fill="black"/>
<path d="M34.5857 185.759L22.4478 197.895C22.3241 198.035 22.2583 198.217 22.264 198.403C22.2697 198.59 22.3464 198.767 22.4784 198.899C22.6104 199.031 22.7878 199.108 22.9744 199.114C23.1611 199.119 23.3428 199.054 23.4826 198.93L35.6205 186.794C35.7442 186.654 35.81 186.473 35.8043 186.286C35.7986 186.099 35.722 185.922 35.5899 185.79C35.4579 185.658 35.2805 185.581 35.0939 185.576C34.9073 185.57 34.7255 185.636 34.5857 185.759Z" fill="black"/>
<path d="M186.238 259.55L178.229 268.717C177.622 269.424 178.634 270.463 179.266 269.752L187.273 260.585C187.888 259.878 186.858 258.839 186.238 259.55Z" fill="black"/>
<path d="M188.524 262.421L186.019 274.571C185.828 275.491 187.234 275.883 187.436 274.96L189.941 262.81C190.121 261.891 188.712 261.498 188.524 262.421Z" fill="black"/>
<path d="M182.556 259.351L169.978 264.582C169.122 264.938 169.499 266.356 170.369 265.999L182.945 260.769C183.801 260.414 183.424 258.997 182.556 259.351Z" fill="black"/>
<path d="M170.505 125.214C170.049 126.038 171.315 126.777 171.768 125.951C175.399 119.409 180.315 113.668 186.221 109.074C186.384 108.972 186.502 108.812 186.551 108.625C186.599 108.439 186.575 108.241 186.482 108.072C186.434 107.989 186.369 107.916 186.293 107.858C186.216 107.8 186.129 107.758 186.036 107.733C185.943 107.709 185.846 107.704 185.751 107.717C185.656 107.73 185.564 107.762 185.482 107.811C179.346 112.52 174.247 118.445 170.505 125.214Z" fill="black"/>
<path d="M167.527 122.289C171.159 115.748 176.075 110.008 181.98 105.413C182.145 105.312 182.264 105.152 182.314 104.965C182.364 104.778 182.34 104.58 182.247 104.41C182.199 104.327 182.135 104.255 182.058 104.197C181.981 104.138 181.894 104.096 181.801 104.072C181.708 104.048 181.611 104.042 181.516 104.055C181.421 104.068 181.33 104.1 181.247 104.149C175.108 108.857 170.006 114.782 166.262 121.552C165.808 122.376 167.072 123.119 167.527 122.289Z" fill="black"/>
<path d="M289.61 199.09C289.206 199.129 288.816 199.253 288.463 199.453C288.111 199.654 287.805 199.927 287.566 200.254C287.326 200.581 287.159 200.955 287.074 201.352C286.989 201.748 286.99 202.158 287.075 202.555C287.1 202.648 287.144 202.735 287.203 202.811C287.262 202.887 287.336 202.951 287.42 202.999C287.504 203.047 287.596 203.077 287.692 203.089C287.787 203.102 287.885 203.095 287.978 203.069C288.071 203.044 288.158 203 288.234 202.941C288.31 202.881 288.374 202.808 288.422 202.724C288.47 202.64 288.5 202.548 288.513 202.452C288.525 202.356 288.518 202.259 288.492 202.166C288.19 200.791 290.007 200.106 291.262 200.807C292.548 201.431 293.253 202.358 295.158 203.565C295.798 203.945 296.523 204.157 297.266 204.183C298.009 204.208 298.747 204.046 299.411 203.711C302.981 201.552 303.113 198.8 306.326 198.551C307.476 198.646 308.066 199.501 308.72 200.576C309.71 202.589 311.976 203.93 313.809 202.411C314.652 201.693 315.4 200.871 316.036 199.965C316.536 199.369 317.227 198.513 318.106 198.703C319.023 198.906 319.416 197.488 318.494 197.286C316.208 196.864 315.228 198.786 313.75 200.451C313.221 201.058 312.507 201.787 311.628 201.546C309.694 201.018 309.876 197.373 306.322 197.091C305.233 197.225 304.187 197.598 303.259 198.183C302.331 198.768 301.543 199.551 300.952 200.475C298.571 203.31 296.959 203.3 294.575 201.386C293.952 200.68 293.189 200.111 292.334 199.716C291.479 199.321 290.552 199.107 289.61 199.09Z" fill="black"/>
<path d="M216.165 237.776C218.544 237.123 218.919 233.977 218.866 231.903C218.856 231.716 218.775 231.539 218.639 231.41C218.502 231.281 218.322 231.208 218.134 231.208C217.946 231.208 217.766 231.281 217.63 231.41C217.493 231.539 217.412 231.716 217.402 231.903C217.436 233.229 217.382 235.617 215.966 236.297C215.561 236.446 215.116 236.447 214.709 236.302C214.303 236.158 213.959 235.875 213.739 235.503C213.135 234.429 212.872 233.196 212.986 231.968C212.986 231.774 212.909 231.588 212.771 231.451C212.634 231.314 212.448 231.237 212.255 231.237C212.061 231.237 211.875 231.314 211.738 231.451C211.601 231.588 211.523 231.774 211.523 231.968C211.396 233.55 211.789 235.13 212.643 236.467C213.022 237.024 213.564 237.449 214.195 237.684C214.826 237.918 215.515 237.95 216.165 237.776Z" fill="black"/>
<path d="M71.9754 168.496C72.027 168.571 72.0929 168.635 72.1693 168.685C72.2458 168.735 72.3313 168.769 72.421 168.786C72.5107 168.803 72.6029 168.802 72.6921 168.783C72.7814 168.764 72.8661 168.728 72.9413 168.676C73.156 168.528 78.7673 162.905 79.8729 161.761C79.9967 161.621 80.0624 161.439 80.0568 161.252C80.0511 161.066 79.9744 160.888 79.8424 160.756C79.7104 160.624 79.5329 160.548 79.3463 160.542C79.1597 160.536 78.9779 160.602 78.8381 160.726L72.5384 167.026L70.89 164.662C70.3554 163.895 69.0857 164.626 69.6264 165.402C71.8033 168.522 71.6575 168.403 71.9754 168.496Z" fill="black"/>
<path d="M220.077 229.621H221.763C221.95 229.611 222.127 229.53 222.256 229.394C222.386 229.257 222.458 229.077 222.458 228.889C222.458 228.701 222.386 228.52 222.256 228.384C222.127 228.248 221.95 228.166 221.763 228.156H220.077C219.889 228.166 219.713 228.248 219.583 228.384C219.454 228.52 219.382 228.701 219.382 228.889C219.382 229.077 219.454 229.257 219.583 229.394C219.713 229.53 219.889 229.611 220.077 229.621Z" fill="black"/>
<path d="M209.947 228.156H208.259C208.072 228.166 207.895 228.248 207.766 228.384C207.637 228.52 207.564 228.701 207.564 228.889C207.564 229.077 207.637 229.257 207.766 229.394C207.895 229.53 208.072 229.611 208.259 229.621H209.947C210.135 229.611 210.312 229.53 210.441 229.394C210.57 229.257 210.642 229.077 210.642 228.889C210.642 228.701 210.57 228.52 210.441 228.384C210.312 228.248 210.135 228.166 209.947 228.156Z" fill="black"/>
<path d="M199.944 132.163V121.797C199.934 121.61 199.852 121.433 199.716 121.304C199.58 121.175 199.399 121.103 199.212 121.103C199.024 121.103 198.843 121.175 198.707 121.304C198.571 121.433 198.489 121.61 198.479 121.797V132.163C198.489 132.351 198.571 132.527 198.707 132.657C198.843 132.786 199.024 132.858 199.212 132.858C199.399 132.858 199.58 132.786 199.716 132.657C199.852 132.527 199.934 132.351 199.944 132.163Z" fill="black"/>
<path d="M199.439 134.998C199.253 135.005 199.077 135.082 198.946 135.213C198.815 135.344 198.738 135.52 198.731 135.706V137.477C198.741 137.664 198.823 137.841 198.959 137.97C199.095 138.1 199.276 138.172 199.464 138.172C199.652 138.172 199.833 138.1 199.969 137.97C200.105 137.841 200.187 137.664 200.197 137.477V135.706C200.19 135.511 200.106 135.328 199.964 135.195C199.822 135.063 199.633 134.992 199.439 134.998Z" fill="black"/>
</svg>
