<?xml version="1.0" encoding="UTF-8"?>
<svg version="1.1" xmlns="http://www.w3.org/2000/svg" width="83" height="83">
<path d="M0 0 C7.32675071 3.70841685 12.08811336 10.65701857 17 17 C17.7528125 17.87914063 18.505625 18.75828125 19.28125 19.6640625 C21 22 21 22 20.75 24.8125 C20.5025 25.534375 20.255 26.25625 20 27 C17.91015625 27.453125 17.91015625 27.453125 15 27 C12.49384733 24.85387736 10.49900153 22.31679477 8.4375 19.75 C3.6030558 13.48413972 3.6030558 13.48413972 -2 8 C-5.29076677 8.11282629 -6.95854228 9.57449549 -9.1875 11.875 C-9.78691406 12.49246094 -10.38632812 13.10992187 -11.00390625 13.74609375 C-14.13570854 17.28239497 -16.966305 21.05408775 -19.7890625 24.83984375 C-22 27 -22 27 -24.7734375 27.31640625 C-25.50820313 27.21199219 -26.24296875 27.10757813 -27 27 C-27.75390625 24.8359375 -27.75390625 24.8359375 -28 22 C-26.33984375 19.3515625 -26.33984375 19.3515625 -23.9375 16.625 C-23.10476562 15.66722656 -22.27203125 14.70945312 -21.4140625 13.72265625 C-20.61742187 12.82417969 -19.82078125 11.92570312 -19 11 C-17.93632355 9.68845324 -16.8736119 8.37612249 -15.8125 7.0625 C-11.27781577 1.88000374 -7.11311321 -1.22639883 0 0 Z " fill="#8B8B8B" transform="translate(45,28)"/>
</svg>
