<svg width="1440" height="185" viewBox="0 0 1440 185" fill="none" xmlns="http://www.w3.org/2000/svg">
<path d="M-3 83.1615C-3 83.1615 123.334 9.72146 212.489 7.9905C322.625 5.85221 366.609 90.6182 474.802 111.225C688.267 151.883 809.006 -37.0523 1021.58 7.9905C1109.68 26.659 1148.18 108.462 1236.57 91.1797C1296.41 79.4791 1308.5 -3.0019 1368.48 7.9905C1403.34 14.3797 1444 58.1045 1444 58.1045" stroke="#A74DD1"/>
<path d="M-1 87.9743C-1 87.9743 90.4941 81.3955 148.967 75.5396C262.629 64.1568 325.783 20.6786 438.869 36.7434C514.163 47.4396 547.949 89.2122 623.443 98.4195C748.907 113.721 814.092 12.473 939.427 28.7852C1011.22 38.129 1042.72 92.6435 1114.97 87.9743C1171.09 84.348 1193.39 41.8563 1249.39 36.7434C1302.62 31.8835 1331.86 69.8388 1384.31 59.6232C1409.19 54.7776 1445 36.7434 1445 36.7434" stroke="#CC98E4"/>
<path d="M-2 102.367C-2 102.367 117.452 155.241 197.032 148.83C271.112 142.863 300.162 78.2362 374.453 80.3847C449.161 82.5454 474.262 150.064 548.355 159.822C679.124 177.044 727.979 -0.643767 857.458 24.4291C929.41 38.3623 947.742 122.272 1020.8 116.356C1058.91 113.271 1073.62 82.8689 1111.78 80.3847C1164.88 76.9273 1185.23 131.578 1238.43 130.345C1307.8 128.738 1324.18 12.8794 1389.22 36.9192C1414.87 46.4031 1444 80.3847 1444 80.3847" stroke="#CC98E4"/>
<path d="M-4 98.0469C-4 98.0469 123.282 116.647 204.006 107.007C280.722 97.8464 317.528 46.2433 394.427 53.7419C489.497 63.0123 505.619 177.223 600.926 183.67C693.232 189.914 726.89 105.664 817.976 89.5841C940.964 67.8731 1017.58 178.965 1134.51 135.383C1184.64 116.698 1197.02 69.5435 1250.07 62.2046C1301.37 55.1065 1327.24 109.726 1377.68 98.0469C1406.08 91.4726 1443 62.2046 1443 62.2046" stroke="#A74DD0"/>
<path d="M-1 113.5C-1 113.5 97.4195 48.9026 168.5 47C259.788 44.5566 290.18 143.447 381.5 143.5C447.337 143.538 476.899 99.0597 542.5 93.5C642.919 84.9895 691.721 157.893 792.5 157.5C891.766 157.113 939.239 92.4574 1038.5 93.5C1129.24 94.4531 1174.43 168.84 1263.5 151.5C1306.61 143.107 1323.84 99.3799 1367 107.5C1385.55 110.99 1392.74 132.276 1411 127.5C1427.76 123.116 1439.5 93.5 1439.5 93.5" stroke="#A74DD0"/>
</svg>
