<svg width="32" height="32" viewBox="0 0 32 32" fill="none" xmlns="http://www.w3.org/2000/svg">
<path d="M3.33331 16C3.33331 10.0289 3.33331 7.04336 5.1883 5.18836C7.0433 3.33337 10.0289 3.33337 16 3.33337C21.971 3.33337 24.9566 3.33337 26.8117 5.18836C28.6666 7.04336 28.6666 10.0289 28.6666 16C28.6666 21.9711 28.6666 24.9567 26.8117 26.8118C24.9566 28.6667 21.971 28.6667 16 28.6667C10.0289 28.6667 7.0433 28.6667 5.1883 26.8118C3.33331 24.9567 3.33331 21.9711 3.33331 16Z" stroke="#DAE01E" stroke-width="1.5"/>
<path d="M15.6432 16V21.3333C15.6432 22.8061 14.4494 24 12.9766 24C11.9896 24 11.1278 23.4637 10.6667 22.6667" stroke="#DAE01E" stroke-width="1.5" stroke-linecap="round"/>
<path d="M24.6224 17.3333C24.1613 16.5363 23.2996 16 22.3125 16H21.6459C20.5412 16 19.6459 16.8955 19.6459 18C19.6459 19.1045 20.5412 20 21.6459 20H22.9792C24.0837 20 24.9792 20.8955 24.9792 22C24.9792 23.1045 24.0837 24 22.9792 24H22.3125C21.3255 24 20.4636 23.4637 20.0025 22.6667" stroke="#DAE01E" stroke-width="1.5" stroke-linecap="round"/>
</svg>
