<svg width="1439" height="166" viewBox="0 0 1439 166" fill="none" xmlns="http://www.w3.org/2000/svg">
<path d="M1 64.8494C1 64.8494 116.961 151.709 204.5 163.849C322.711 180.243 378.878 58.3288 497 75.3494C577.842 86.9983 605.424 153.958 686.5 163.849C827.975 181.11 876.747 -29.7818 1015 4.84944C1088.28 23.2065 1101.47 127.907 1175.5 112.849C1230.72 101.618 1223.66 14.4288 1280 13.3494C1325.61 12.4757 1334.91 87.0422 1379 75.3494C1411.05 66.851 1437 13.3494 1437 13.3494" stroke="#CC98E4"/>
<path d="M2.5 112.5C2.5 112.5 77.4388 71.7114 127 80.0001C173.912 87.8457 182.746 139.579 230 145C288.132 151.669 306.645 84.3025 365 80.0001C415.868 76.2496 441.059 104.933 491.5 112.5C663.592 138.317 764.107 -39.3749 927.5 20.5001C991.088 43.8018 1006.78 112.681 1074.5 112.5C1137.57 112.332 1154.42 12.8217 1214.5 32.0001C1255.05 44.9453 1246.02 105.431 1288 112.5C1341.18 121.456 1340.48 1.61125 1391 20.5001C1419.31 31.0859 1440.5 80.0001 1440.5 80.0001" stroke="#A74DD1"/>
</svg>
