<svg width="48" height="48" viewBox="0 0 48 48" fill="none" xmlns="http://www.w3.org/2000/svg">
<g clip-path="url(#clip0_529_943)">
<rect width="48" height="48" rx="24" fill="#5865F2"/>
<path d="M26.2261 8.35115C28.366 13.2238 29.9839 18.9208 29.6357 25.0597L23.0192 25.471C23.0085 20.9189 22.0301 15.446 21.4142 8.85559C20.9322 3.69913 23.6052 2.3854 26.2261 8.35115Z" fill="#FF78B9"/>
<path d="M25.3026 10.8319C26.6507 14.3739 28.1575 20.0832 27.6107 25.6072L24.775 26.4707C24.9071 20.7348 24.1943 17.2044 23.4666 11.4745C23.1895 9.29708 23.1462 7.89383 23.5515 8.01069C23.964 8.12851 24.5991 8.98183 25.3026 10.8319Z" fill="#FFAED7"/>
<path d="M11.1457 9.65439C17.4139 12.3259 21.877 20.5598 23.5439 26.73L16.3 26.2754C14.8513 22.4196 12.1099 18.3439 8.9107 13.6856C6.12211 9.62367 7.81955 8.18679 11.1457 9.65439Z" fill="#FF78B9"/>
<path d="M12.6466 12.8841C15.988 15.7501 19.5815 19.8788 21.6187 27.0078L18.614 26.8515C16.6091 21.9607 15.1393 19.3529 11.6926 14.5552C9.94337 12.1206 9.8783 10.5095 12.6466 12.8841Z" fill="#FFAED7"/>
<path d="M32.2141 24.1737L13.9924 26.3027C10.4158 26.7208 7.8699 30.0618 8.36031 33.79C8.85508 37.5527 12.2376 40.1927 15.8604 39.6631L34.2962 36.9662C37.5844 36.4853 39.728 33.243 39.1328 29.7453C38.5428 26.2788 35.4663 23.7934 32.2141 24.1737Z" fill="#FF78B9"/>
<path d="M8.45073 48.5872H35.5567L36.8598 48.3618C40.3437 47.7593 42.5988 44.1927 41.9521 40.4184C41.3112 36.6787 38.0431 34.0597 34.5993 34.5451L13.5869 37.5064C9.74801 38.0474 7.00853 41.7549 7.53064 45.8149C7.65374 46.7901 7.9663 47.7319 8.45073 48.5872Z" fill="#FF78B9"/>
<path d="M21.8913 37.0729C22.1516 36.7077 21.8079 36.0164 21.1237 35.5287C20.4395 35.0411 19.6739 34.9418 19.4136 35.307C19.1534 35.6721 19.497 36.3635 20.1812 36.8511C20.8654 37.3388 21.6311 37.4381 21.8913 37.0729Z" fill="black"/>
<path d="M28.7132 35.6607C29.2009 34.9765 29.3002 34.2109 28.935 33.9506C28.5698 33.6904 27.8785 34.034 27.3908 34.7182C26.9031 35.4024 26.8038 36.168 27.169 36.4283C27.5342 36.6886 28.2255 36.3449 28.7132 35.6607Z" fill="black"/>
<path d="M27.1596 39.2085C27.7368 39.5588 26.417 41.9719 25.1103 42.1539C23.8888 42.3232 22.0982 40.4542 22.3803 39.9904C22.6624 39.5266 23.9715 39.9861 24.8149 39.8339C25.6583 39.6817 26.6914 38.9242 27.1596 39.2085Z" fill="black"/>
<path d="M25.1104 42.1542C25.7416 42.0664 26.3751 41.4579 26.7972 40.8126C26.1658 40.6133 25.4956 40.5693 24.8436 40.6842C24.2459 40.7653 23.672 40.9714 23.1592 41.289C23.7263 41.8026 24.4915 42.2403 25.1104 42.1542Z" fill="#D11583"/>
</g>
<defs>
<clipPath id="clip0_529_943">
<rect width="48" height="48" rx="24" fill="white"/>
</clipPath>
</defs>
</svg>
